<?xml version="1.0" standalone="no"?>
<!DOCTYPE svg PUBLIC "-//W3C//DTD SVG 1.1//EN" "http://www.w3.org/Graphics/SVG/1.1/DTD/svg11.dtd" >
<svg xmlns="http://www.w3.org/2000/svg">
<metadata></metadata>
<defs>
<font id="afta_sansitalic" horiz-adv-x="1310" >
<font-face units-per-em="2048" ascent="1638" descent="-410" />
<missing-glyph horiz-adv-x="577" />
<glyph unicode="&#xfb01;" horiz-adv-x="1241" d="M207 0l205 973h-162l20 88h162l39 188q32 143 106.5 241.5t170 143.5t208.5 45q67 0 117 -7t92.5 -24.5t62.5 -28.5t62 -38l15 68h180l-39 -183h-209q-62 50 -140 88.5t-145 38.5q-61 0 -115 -23t-91.5 -59t-68 -84t-48.5 -93.5t-29 -92.5l-37 -180h797l-225 -1061h-146 l205 973h-649l-205 -973h-133z" />
<glyph unicode="&#xfb02;" horiz-adv-x="1232" d="M225 0l205 971h-184l20 90h185l38 182q21 103 56.5 181t79 127.5t100 80t115.5 42.5t131 12q47 0 89 -3.5t87.5 -12t82 -22.5t72 -35.5t57.5 -50.5t38.5 -67.5t15.5 -87.5t-12 -109l-275 -1296h-145l274 1296q32 147 -41.5 214t-265.5 67q-78 -2 -135 -27.5t-93 -74 t-57.5 -103t-37.5 -131.5l-39 -182h260l-21 -90h-260l-205 -971h-135z" />
<glyph horiz-adv-x="0" />
<glyph horiz-adv-x="682" />
<glyph unicode=" "  horiz-adv-x="577" />
<glyph unicode="&#x09;" horiz-adv-x="577" />
<glyph unicode="&#xa0;" horiz-adv-x="577" />
<glyph unicode="!" horiz-adv-x="540" d="M195 0l36 176h175l-37 -176h-174zM348 461l78 602l92 436h146l-93 -436l-180 -602h-43z" />
<glyph unicode="&#x22;" horiz-adv-x="890" d="M479 1010l105 485h94l-105 -485h-94zM793 1010l104 485h90l-104 -485h-90z" />
<glyph unicode="#" horiz-adv-x="1175" d="M190 457l13 63h248l161 418h-266l12 63h277l170 451h94l-174 -451h344l172 451h96l-176 -451h197l-12 -63h-207l-160 -418h211l-12 -63h-217q-95 -222 -175 -457h-94l172 457h-344q-51 -134 -86.5 -230.5t-55.5 -151t-28 -75.5h-94l172 457h-238zM543 520h340 q23 56 164 418h-340z" />
<glyph unicode="$" horiz-adv-x="1198" d="M135 82l29 133q68 -61 186.5 -106t270.5 -52l141 658q-236 75 -335 177t-65 263q20 90 90 169t196.5 138.5t287.5 75.5l31 141h63l-31 -141q291 -18 418 -96l-20 -103q-182 97 -416 113l-131 -623q42 -16 71 -28.5t69 -31.5t67.5 -36t60 -41t53 -48.5t40 -56.5t27 -66 t8 -76.5t-10.5 -88.5q-16 -74 -59 -136.5t-99.5 -105.5t-128.5 -75.5t-142 -50.5t-142 -27l-43 -205h-64l43 203q-172 7 -292 43t-173 80zM526 1153q-40 -189 260 -315l132 612q-160 -27 -263 -102.5t-129 -194.5zM684 55q165 43 267 122t122 179q4 21 6 37.5t0 42.5 t-9.5 49t-26 52t-46 55.5t-72 56t-102.5 56.5z" />
<glyph unicode="%" horiz-adv-x="2048" d="M436 1075q46 202 147.5 307t270.5 105q77 0 129.5 -23t79.5 -59.5t37.5 -92t7.5 -111.5t-16 -126q-23 -103 -62 -179t-79.5 -116t-92.5 -64t-90 -30t-84 -6q-327 0 -248 395zM471 -39l1483 1555h104l-1485 -1555h-102zM502 925q3 -60 15.5 -99t41 -62t60 -32t73.5 -9 q118 0 197 79t121 273q17 85 18.5 149t-10 104.5t-37.5 66t-59 35.5t-78 10q-59 0 -105.5 -17t-88.5 -57.5t-75 -114.5t-57 -182q-19 -84 -16 -144zM1358 239.5q1 60.5 16 135.5q52 205 149.5 307t270.5 102q75 0 127 -23t79.5 -60t38 -91.5t7 -110.5t-17.5 -124 q-20 -87 -48 -154.5t-62 -109t-68 -68.5t-76 -39.5t-74.5 -17t-73.5 -4.5q-36 0 -64.5 2.5t-62 12t-57.5 26t-45 46t-30.5 70t-8.5 101zM1439 223q-2 -62 10 -102t38 -64.5t60.5 -34.5t82.5 -10q125 0 201.5 82t116.5 281q42 214 5.5 293.5t-167.5 79.5q-125 0 -205.5 -86.5 t-122.5 -294.5q-17 -82 -19 -144z" />
<glyph unicode="&#x26;" horiz-adv-x="1554" d="M184.5 283.5q-10.5 103.5 18.5 236.5q53 237 184 351t381 151q-2 31 -5 68.5t-4 53.5t2 45t11 68q12 57 40 99.5t63.5 67.5t83 40.5t93 21t99.5 5.5q157 -2 228 -56t46 -178q-14 -52 -45 -135q206 -37 275.5 -151t25.5 -344q-37 -162 -123.5 -287.5t-242.5 -224.5 q99 -62 213 -62q166 0 338 84l-25 -108q-124 -62 -338 -62q-90 0 -160 19t-145 73q-234 -96 -536 -96q-157 0 -261.5 37.5t-155 108.5t-61 174.5zM317.5 363.5q-3.5 -71.5 10 -124.5t41.5 -89.5t74 -59t104.5 -32t136.5 -9.5q183 0 440 68q-261 314 -358 852 q-68 -17 -110 -31t-89 -37t-77 -52.5t-59.5 -73.5t-51 -104.5t-39.5 -142.5q-19 -93 -22.5 -164.5zM858 1225q-22 -99 15.5 -272t95.5 -326q114 159 165 233.5t110 181.5t77 183q9 33 6 58.5t-8 44t-20 31.5t-30.5 21t-39.5 13t-46 6.5t-50 1.5q-58 0 -98 -6t-78 -24 t-62.5 -54t-36.5 -92zM981 539q69 -154 111 -221.5t116 -141.5q134 58 216.5 168t119.5 291q18 86 19.5 148t-9.5 104.5t-42.5 74.5t-69.5 52.5t-101 44.5q-130 -240 -360 -520z" />
<glyph unicode="'" horiz-adv-x="585" d="M479 1010l105 485h92l-105 -485h-92z" />
<glyph unicode="(" horiz-adv-x="645" d="M226.5 348.5q2.5 103.5 23.5 202.5q54 261 225 522.5t397 468.5h74q-50 -57 -105 -128t-126 -177t-130.5 -212t-111 -233t-74.5 -241q-88 -389 111 -987h-59q-16 25 -33.5 55.5t-47 91.5t-53.5 124t-47 150t-34.5 173.5t-9 190z" />
<glyph unicode=")" horiz-adv-x="630" d="M-35 -436q74 104 113 159.5t105 153.5t105.5 168.5t85.5 160.5t76.5 175.5t49.5 169.5q24 116 25 245t-13 232.5t-41.5 212t-50 173.5t-47.5 128h73q139 -233 198 -485.5t5 -505.5q-105 -473 -612 -977l-10 -10h-62z" />
<glyph unicode="*" horiz-adv-x="673" d="M342 1116l98 49q82 39 166 74q-39 20 -117 57t-98 47q6 14 17 30t12 18l184 -111l47 217h54l-48 -217l234 111q0 -2 4 -18t4 -30q-37 -15 -127.5 -50.5t-132.5 -53.5q32 -17 85.5 -48.5t89.5 -53.5t36 -21l-27 -51l-180 147l-55 -266h-53l55 266l-242 -147z" />
<glyph unicode="+" horiz-adv-x="1228" d="M121 475v86h465v481h92v-481h483v-86h-483v-473h-92v473h-465z" />
<glyph unicode="," horiz-adv-x="569" d="M106 -383l15 72q43 4 77.5 25.5t53.5 42t38 70t25 70.5t20 83q1 4 2 6.5t1.5 6.5t1.5 7h-123l35 172h178q-10 -137 -27 -203q-34 -171 -115.5 -254.5t-181.5 -97.5z" />
<glyph unicode="-" horiz-adv-x="815" d="M246 518l22 105h574l-23 -105h-573z" />
<glyph unicode="." horiz-adv-x="555" d="M215 -2l37 172h174l-37 -172h-174z" />
<glyph unicode="/" horiz-adv-x="710" d="M2 -39l961 1581h96l-961 -1581h-96z" />
<glyph unicode="0" horiz-adv-x="1331" d="M233.5 466q1.5 112 30.5 247q41 187 106.5 327t138 222.5t162.5 133t171 68t174 17.5q54 0 102.5 -7t103 -28t96.5 -55.5t77 -93.5t50.5 -137.5t10.5 -193t-35 -253.5q-29 -136 -73.5 -247.5t-95 -187t-111.5 -133.5t-117.5 -91t-119.5 -53.5t-111.5 -27t-98.5 -6.5 q-49 0 -96 6.5t-103 27t-100.5 53.5t-83.5 91t-59 133.5t-18.5 187.5zM401 698q-139 -647 312 -647q93 0 177.5 36t161.5 112t137.5 207t96.5 307q32 147 35 262.5t-19.5 192.5t-67 127.5t-103.5 72t-134 21.5q-104 0 -191 -35t-165 -113t-139 -214.5t-101 -328.5z" />
<glyph unicode="1" horiz-adv-x="890" d="M387 0l293 1380l-94 -24q-23 -7 -44 -12.5t-33.5 -8.5t-12.5 -2l12 60q109 61 162 94h168l-316 -1487h-135z" />
<glyph unicode="2" horiz-adv-x="1189" d="M70 0q18 78 43 145.5t58 124.5t69 104t84.5 90t94.5 77t108.5 69.5t118.5 63.5t132 63h-2q301 134 352 363q13 54 1.5 105t-40 91t-89 65.5t-144.5 29.5q-207 0 -367 -160q-60 60 -83 80q72 74 199.5 125t268.5 51q116 0 201 -31t128.5 -84t60 -123.5t-3.5 -148.5 q-67 -307 -472 -484q-97 -44 -176 -92.5t-152 -111t-124.5 -142.5t-75.5 -172h834l-21 -98h-1003z" />
<glyph unicode="3" horiz-adv-x="1269" d="M96 45l23 109q203 -101 469 -101q102 0 189.5 26.5t146 66t102.5 90t66 95t30 83.5q13 56 -2.5 111.5t-55.5 102t-114.5 75t-171.5 28.5h-176l23 98h176q328 0 393 289q6 40 5 78.5t-19.5 74t-48.5 62t-81.5 42.5t-117.5 16q-209 0 -543 -152l25 111q297 139 538 139 q77 0 142 -11.5t121.5 -37t91 -65.5t50 -96t-0.5 -130q-32 -144 -114 -234t-230 -127q38 -10 68 -20t62 -24t55.5 -30.5t45.5 -37.5t35 -47.5t21 -58t6.5 -71t-11.5 -85.5q-25 -120 -118.5 -221.5t-250 -164.5t-343.5 -63q-189 0 -311 25.5t-175 54.5z" />
<glyph unicode="4" horiz-adv-x="1384" d="M162 412l26 127q171 159 504 474.5t504 475.5h123l-211 -989h338l-19 -88h-337l-86 -412h-134l86 412h-794zM248 500h727l188 880q-257 -245 -568 -545.5t-347 -334.5z" />
<glyph unicode="5" horiz-adv-x="1269" d="M113 109l24 118q263 -143 496 -143q92 0 173.5 27t140 71t104.5 101t73 114.5t39 114.5q12 49 9.5 97.5t-13 92t-39 81t-69.5 64.5t-103.5 42.5t-140.5 15.5q-137 0 -399 -86l-99 66q46 127 84.5 227t69.5 179.5t37 94.5l28 78h967q-6 -19 -17 -46t-14 -34h-831 l-160 -471q196 76 352 76q133 0 232 -27t167.5 -84.5t89.5 -148t-3 -217.5q-34 -162 -136 -279t-245.5 -175t-313.5 -58q-198 0 -324.5 35.5t-178.5 73.5z" />
<glyph unicode="6" horiz-adv-x="1232" d="M221.5 428.5q2.5 129.5 38.5 300.5q35 165 93 295t129 216t157.5 143t176 81.5t188.5 24.5q69 0 129 -10t121 -35t93.5 -41t100.5 -53l-35 -119q-215 155 -432 155q-88 0 -165 -30t-133.5 -78t-105 -117.5t-81 -139.5t-59 -153t-41.5 -148.5t-27 -135.5q18 33 50.5 72.5 t83.5 85.5t108.5 83t132 61.5t147.5 24.5q229 0 335 -141q88 -117 62 -285q-26 -171 -154 -305q-162 -168 -408 -195q-44 -5 -89 -5q-102 0 -177 22t-131.5 75t-83 137.5t-24 214zM359.5 343.5q1.5 -53.5 24 -104.5t56.5 -90.5t90 -63.5t123 -24q198 0 339 143 q112 113 142 264q29 150 -41 247q-72 98 -223 98q-144 0 -281.5 -106.5t-221.5 -257.5q-9 -52 -7.5 -105.5z" />
<glyph unicode="7" horiz-adv-x="1255" d="M406 1376l49 76h1032q-8 -39 -19 -69t-29.5 -56.5t-30.5 -41t-39.5 -42.5t-39.5 -41q1 0 -52 -53.5t-151 -150.5t-206 -203q-150 -166 -195 -367l-90 -428h-139l90 428q28 132 85.5 226t141.5 184q408 408 541 538h-948z" />
<glyph unicode="8" horiz-adv-x="1255" d="M172.5 251.5q-3.5 64.5 11.5 147.5q15 72 56.5 140t92 117t110.5 91t107.5 66t88.5 39q-39 17 -77 41.5t-81 63.5t-64 92.5t-9 111.5q32 156 176.5 241t378.5 85q233 0 335 -92t72 -234q-45 -201 -354 -305q47 -24 85.5 -49.5t75.5 -58.5t61 -68.5t42 -80t19 -93 t-9 -107.5q-29 -139 -124.5 -239t-231 -147.5t-297.5 -47.5q-78 0 -143 9t-124 29.5t-99 54t-67.5 81.5t-31 112.5zM317.5 269q13.5 -56 45 -95.5t81 -64.5t103 -36.5t112.5 -11.5q112 0 214 39.5t176.5 118t95.5 180.5q19 94 -7.5 173t-86 131t-138 83t-165.5 37 q-167 -48 -279 -157.5t-147 -266.5q-18 -74 -4.5 -130zM559 1180q-7 -30 4.5 -59.5t31.5 -52t56 -46t64.5 -38t73 -31.5t64.5 -24t54 -18q16 4 58.5 23.5t100 52.5t106 85.5t59.5 107.5q11 54 -1.5 93.5t-40 62t-71.5 36t-85.5 17.5t-92.5 4q-56 0 -114.5 -12t-115 -35.5 t-98 -66.5t-53.5 -99z" />
<glyph unicode="9" horiz-adv-x="1232" d="M147 119l33 119q43 -29 79 -50.5t93.5 -48.5t124 -42t135.5 -15q87 0 164 30t134.5 79t106 117.5t82 140t60 152.5t41.5 149t25 135q-23 -42 -70 -94t-114 -106.5t-157.5 -91t-181.5 -36.5q-228 0 -334 141q-88 117 -63 285q26 171 155 306q161 168 409 195q43 5 87 5 q102 0 177.5 -22t132.5 -75t83.5 -138t23.5 -214.5t-40 -300.5q-35 -165 -93 -295t-128 -216t-156.5 -142.5t-176 -81t-189.5 -24.5q-69 0 -130 10.5t-120 34t-95.5 42t-97.5 52.5zM460 1001q-30 -150 41 -247q71 -99 224 -99q145 0 281 106.5t221 258.5q9 52 7.5 105.5 t-24 104t-56.5 90t-89.5 63.5t-122.5 24q-198 0 -339 -142q-113 -113 -143 -264z" />
<glyph unicode=":" horiz-adv-x="575" d="M215 -2l37 172h174l-37 -172h-174zM406 887l34 172h174l-34 -172h-174z" />
<glyph unicode=";" horiz-adv-x="587" d="M106 -383l15 72q43 4 77.5 25.5t53.5 42t38 70t25 70.5t20 83q1 4 2 6.5t1.5 6.5t1.5 7h-123l35 172h178q-10 -137 -27 -203q-34 -171 -115.5 -254.5t-181.5 -97.5zM406 887l34 172h174l-34 -172h-174z" />
<glyph unicode="&#x3c;" horiz-adv-x="1271" d="M121 481v80q179 73 543.5 243t543.5 243v-109l-1001 -420l1020 -418v-104q-189 76 -553 242.5t-553 242.5z" />
<glyph unicode="=" horiz-adv-x="1224" d="M121 262v84h1026v-84h-1026zM121 686v88h1026v-88h-1026z" />
<glyph unicode="&#x3e;" horiz-adv-x="1265" d="M98 -4v104l1020 418l-1001 420v109q179 -73 543.5 -243t543.5 -243v-80q-188 -76 -552.5 -242.5t-553.5 -242.5z" />
<glyph unicode="?" horiz-adv-x="1189" d="M432 1331l29 142q169 65 413 65q110 0 195.5 -20.5t146 -63t84 -113t3.5 -163.5q-14 -62 -44.5 -116t-77 -99t-87.5 -76t-101 -70q-79 -52 -135.5 -98t-112 -116t-83.5 -146h-82q16 63 45.5 121t59.5 96.5t74.5 79.5t71.5 61.5t70 50.5q59 40 88 62t69 61t63.5 84.5 t37.5 104.5q24 118 -50 187t-257 69q-182 0 -420 -103zM446 -2l37 172h172l-37 -172h-172z" />
<glyph unicode="@" horiz-adv-x="1673" d="M100 750q0 238 102.5 418.5t281.5 276t407 95.5q127 0 240 -25t208.5 -76.5t165 -126t108 -179t38.5 -230.5q0 -69 -11.5 -133.5t-40.5 -127.5t-73 -109t-113.5 -74.5t-157.5 -28.5q-97 0 -159 44t-84 97q-64 -114 -205 -114q-238 0 -238 291q0 140 63 234.5t183 94.5 q49 0 116.5 -36t119.5 -107q4 25 9 46.5t12.5 45t10.5 35.5q1 0 6 -2q7 -2 14 -5t29.5 -11t53.5 -19q-4 -29 -13 -92.5t-14.5 -103.5t-10.5 -93.5t-5 -93.5q0 -125 125 -125q75 0 127.5 56t76 145t23.5 203q0 126 -52.5 228t-140 165t-194.5 96t-223 33q-27 0 -48 -1 t-69.5 -7t-88 -17.5t-94 -36t-96.5 -57.5t-86.5 -86.5t-74 -120t-48 -160t-18.5 -204.5q0 -144 30.5 -258t74 -185.5t114 -123t126 -75.5t135.5 -37t117.5 -14.5t95.5 -1.5h14q152 0 323.5 54.5t323.5 140.5v-174q-314 -115 -723 -115q-200 0 -354 57.5t-250.5 162 t-144.5 248t-44 319.5zM705 733q0 -86 37 -129t104 -43q53 0 108.5 49.5t63.5 100.5l18 106q-10 13 -20 25t-34 37t-45.5 42.5t-48.5 31.5t-50 14q-133 0 -133 -234z" />
<glyph unicode="A" d="M23 0l886 1464h187l204 -1464h-135l-67 557h-598l-344 -557h-133zM539 643h551l-101 754z" />
<glyph unicode="B" horiz-adv-x="1402" d="M193 -2q53 250 153.5 732t153.5 732h471q118 0 207 -18t142 -50.5t84 -77.5q31 -44 34 -98q1 -11 1 -24q0 -43 -9 -90q-27 -127 -124.5 -202t-236.5 -93q89 -15 159 -46t122 -79q52 -50 70 -122q9 -36 9 -76q0 -41 -10 -87q-94 -426 -653 -426h-31q-397 6 -542 25z M338 68l303 -15h40q104 0 187 13q99 16 166 46t114 77.5t72.5 101.5t41.5 125q8 39 8 73q0 107 -75 174q-99 89 -294 89h-418zM502 844h325q210 0 315 60.5t134 199.5q7 34 7 64q0 84 -56 136q-76 70 -273 70h-340z" />
<glyph unicode="C" horiz-adv-x="1392" d="M256 522q-1 16 -1 32q0 83 19 171q38 183 128.5 331.5t213.5 243.5t270 146t304 51q163 0 379 -67l-27 -125q-100 51 -187 78.5t-184 27.5q-16 0 -41.5 -2t-86.5 -16.5t-120 -39t-134 -76t-136.5 -120.5t-119 -181t-91.5 -249q-22 -109 -22 -201t15 -156.5t49 -116.5 t67.5 -83t82 -54t81.5 -33t77.5 -15.5t58 -6t34.5 -0.5q205 0 440 160l-29 -141q-217 -123 -434 -123q-119 0 -217.5 27.5t-168.5 77.5t-120.5 120.5t-73 156t-26.5 183.5z" />
<glyph unicode="D" horiz-adv-x="1396" d="M188 2l312 1464h368q114 0 208 -25.5t160 -69t114.5 -103.5t75.5 -126q28 -68 41 -140q12 -65 11 -127v-14q-2 -69 -14 -134q-15 -67 -39.5 -134t-65.5 -139.5t-92.5 -136.5t-124 -123t-156.5 -100.5t-194 -66.5t-233 -25h-371zM349 101q5 -11 42 -11h187 q77 0 157.5 18.5t170.5 65.5t165 117t137.5 183t91.5 253q18 97 18 178v33q-4 94 -36.5 166.5t-78.5 124t-106 85t-121.5 49t-123.5 15.5q-145 0 -193 -3t-49 -13l-254 -1192q-8 -41 -8 -58q0 -8 1 -11z" />
<glyph unicode="E" horiz-adv-x="1163" d="M193 0l309 1462h850l-19 -86h-721l-125 -588h535l-18 -88h-535l-129 -612h770l-18 -88h-899z" />
<glyph unicode="F" horiz-adv-x="1185" d="M193 0l309 1462h946l-18 -90h-816l-125 -584h506l-20 -102h-506l-145 -686h-131z" />
<glyph unicode="G" horiz-adv-x="1626" d="M235 478q2 119 29 257q75 349 320.5 556.5t603.5 207.5q177 0 321.5 -26t198.5 -50l-29 -137q-21 8 -69.5 29.5t-83.5 34t-89.5 28.5t-121.5 23.5t-146 7.5q-150 0 -279 -53t-222 -147t-157 -217t-95 -269q-23 -107 -24 -197q-1 -9 -1 -17q0 -80 13 -137 q15 -64 47.5 -115.5t66.5 -83t83.5 -55t86 -34t86 -16.5t71 -6.5t53.5 -0.5h7q155 0 277.5 28t240.5 97l90 430h136l-113 -538q-390 -119 -653 -119h-18q-160 0 -279 34q-126 36 -200.5 104t-113.5 165q-37 91 -37 204v12z" />
<glyph unicode="H" horiz-adv-x="1536" d="M190 0l310 1464h147l-145 -684h925l146 684h133l-309 -1464h-133l145 688h-926l-145 -688h-148z" />
<glyph unicode="I" horiz-adv-x="530" d="M211 0l309 1464h131l-309 -1464h-131z" />
<glyph unicode="J" horiz-adv-x="557" d="M35 -418l16 76q82 68 124.5 134.5t62.5 162.5l321 1511h127l-321 -1511q-19 -83 -52 -148.5t-67.5 -104t-76.5 -65.5t-72.5 -38t-61.5 -17z" />
<glyph unicode="K" horiz-adv-x="1282" d="M178 0l309 1464h131l-176 -835l895 835h140l-603 -571l404 -893h-160l-354 786l-356 -315l-99 -471h-131z" />
<glyph unicode="L" horiz-adv-x="1095" d="M193 0l309 1464h135l-279 -1319q-10 -41 -6.5 -47t39.5 -6h715l-19 -92h-894z" />
<glyph unicode="M" horiz-adv-x="1884" d="M188 0l310 1464h250l264 -1097q6 -29 18 -41t26.5 -7.5t29 17t26.5 31.5q170 262 309 473t205.5 311.5t114.5 172t64.5 97t25.5 43.5h231l-309 -1464h-131l291 1382q-153 -224 -441 -652t-376 -558h-152l-328 1208q-38 -178 -141.5 -648.5t-157.5 -731.5h-129z" />
<glyph unicode="N" horiz-adv-x="1456" d="M186 0l310 1462h194l537 -1306l276 1306h135l-309 -1462h-153l-566 1378l-293 -1378h-131z" />
<glyph unicode="O" horiz-adv-x="1687" d="M250 729q79 372 320.5 567t615.5 201q394 -7 540 -197q93 -122 93 -323q0 -112 -29 -248q-28 -133 -78.5 -247t-130 -211.5t-182 -166t-240.5 -107t-301 -38.5q-635 0 -635 530q0 109 27 240zM385 528q0 -12 -1 -24q0 -76 12 -134q13 -66 44 -119t63 -85.5t80 -56 t82.5 -34.5t83 -17t69.5 -7t52 0h9q23 0 43 1t69.5 7t92.5 17.5t103.5 35.5t111.5 56.5t108 85t101.5 118t83.5 158t61 201.5q23 109 24 201v11q0 86 -15 147q-16 65 -50 117.5t-69.5 84.5t-85.5 56t-87.5 35t-85 17t-68 6.5t-47.5 0.5h-4q-26 0 -48.5 -1t-70.5 -7.5 t-89.5 -18t-99 -35.5t-106 -56.5t-102.5 -84.5t-96.5 -117t-80.5 -156.5t-62 -199.5q-23 -110 -25 -203z" />
<glyph unicode="P" horiz-adv-x="1261" d="M193 -2l311 1464l504 2q81 0 148 -13.5t114 -37t82 -56.5t54.5 -70.5t29.5 -80.5q10 -41 10 -81q0 -44 -10 -91q-12 -59 -40 -115t-78 -112t-116.5 -97.5t-163.5 -67.5t-211 -26h-372l-131 -618h-131zM475 711h373q82 0 153.5 25t118 62.5t82.5 83.5t53.5 83.5t24.5 68.5 q9 41 9 80q0 36 -7 72q-7 40 -28.5 72.5t-54 59t-86.5 41.5t-124 15h-373z" />
<glyph unicode="Q" horiz-adv-x="1681" d="M250 723q79 372 320.5 567t613.5 201q396 -6 542 -196q93 -122 93 -323q0 -112 -29 -249q-28 -128 -76 -236t-122.5 -202.5t-171.5 -163t-228.5 -113t-288.5 -55.5l-14 -68q-9 -37 -9 -68q0 -20 4 -38q9 -46 28.5 -78.5t51 -54.5t62 -33t61.5 -14l-4 -23 q-68 3 -120.5 18.5t-85 37t-54.5 50.5t-31.5 56.5t-12.5 57.5t-1 51t6 40l15 66q-574 41 -574 540q0 105 25 230zM383 522q-1 -17 -1 -34q0 -71 11 -124q13 -66 44 -119t63.5 -85.5t81 -56t83.5 -34.5t83.5 -17t69 -6.5t51.5 -0.5h8q24 0 45 1t70 7t91.5 17.5t102.5 35.5 t110.5 56.5t107 85t101 118t83.5 158t63 201.5q23 109 24 201v12q0 85 -15 146q-15 65 -49 117t-69.5 84.5t-85.5 56.5t-87.5 35t-85.5 17t-68.5 6.5t-47.5 0.5h-4q-26 0 -47.5 -1t-70 -7t-90 -17.5t-99.5 -35.5t-106.5 -56.5t-103 -85t-97 -117t-80 -156.5t-59.5 -200 q-24 -110 -27 -203z" />
<glyph unicode="R" horiz-adv-x="1355" d="M188 0l310 1464h491q240 0 343 -96q77 -72 78 -179q0 -35 -9 -75q-18 -82 -61 -148.5t-99.5 -108t-115 -65.5t-115.5 -30q28 -7 50.5 -18.5t38 -23t28.5 -32t20.5 -33.5t15.5 -41t11 -41.5t10 -46.5l100 -526h-135q-99 542 -111 586q-18 67 -54.5 97t-104.5 30h-412 l-150 -713h-129zM489 813h363q96 0 173 26.5t123 70t73 90.5t36 96q6 36 6 72q-1 2 -1 6q0 40 -19.5 76t-51 63.5t-88.5 44t-132 16.5h-363z" />
<glyph unicode="S" horiz-adv-x="1204" d="M131 78l29 135q73 -65 186.5 -110.5t243.5 -45.5q168 0 300.5 84.5t160.5 206.5q5 27 6.5 45t-0.5 49.5t-11 54.5t-30.5 53.5t-55 54.5t-87 49t-123.5 44h2q-76 22 -134.5 45.5t-110.5 52.5t-84 62t-55 74.5t-24 89.5v7q0 44 10 99q15 72 62.5 138t121 117.5t179 82.5 t225.5 31q178 0 276.5 -24t167.5 -62l-22 -104q-118 61 -218 81.5t-224 20.5q-93 0 -178 -32.5t-148 -98t-82 -152.5q-7 -34 -6 -63q0 -78 46 -127q64 -67 216 -111q182 -60 264 -109q181 -107 182 -284q0 -35 -8 -73q-1 -6 -2 -11q-21 -92 -75.5 -163.5t-122.5 -113 t-151 -68t-152.5 -35.5t-135.5 -9q-161 0 -271.5 36t-166.5 83z" />
<glyph unicode="T" horiz-adv-x="1261" d="M317 1378l19 88h1247l-18 -88h-547l-293 -1378h-137l293 1378h-564z" />
<glyph unicode="U" horiz-adv-x="1468" d="M276 364v13q0 36 6 87q8 61 14 93t17 86l174 821h134l-177 -837q-9 -36 -16 -72q-6 -36 -10 -94q-1 -23 -2 -44q0 -34 4 -64q6 -50 27.5 -104t59.5 -92t105.5 -62.5t157.5 -24.5q86 0 159.5 22.5t125 58t94 85t69 98t47.5 104t32 94.5t20 77q3 13 4 18l176 837h129 l-176 -837q-39 -174 -74 -261q-146 -357 -542 -390q-40 -3 -84 -3q-93 0 -167.5 16t-125.5 40.5t-86.5 66t-56 78.5t-28.5 93.5t-10 96.5z" />
<glyph unicode="V" horiz-adv-x="1398" d="M352 1464h144l200 -1370l783 1370h161l-864 -1464h-198z" />
<glyph unicode="W" horiz-adv-x="2170" d="M346 1464h152l207 -1364l641 1364h167l54 -1368l776 1368h156l-842 -1464h-199l-43 1391l-637 -1391h-198z" />
<glyph unicode="X" horiz-adv-x="1398" d="M63 -2l746 756l-401 710h159l330 -610l592 610h160l-688 -710l407 -756h-141l-371 657l-649 -657h-144z" />
<glyph unicode="Y" horiz-adv-x="1413" d="M369 1464h149l340 -811l690 811h152l-787 -915l-116 -551h-148l117 551z" />
<glyph unicode="Z" horiz-adv-x="1341" d="M70 0l28 137l1385 1239h-1123l19 88h1243l-29 -135l-1364 -1227h1104l-20 -102h-1243z" />
<glyph unicode="[" horiz-adv-x="663" d="M90 -436l420 1972h477l-20 -92h-324l-379 -1790h324l-21 -90h-477z" />
<glyph unicode="\" horiz-adv-x="710" d="M340 1542h96l285 -1581h-96z" />
<glyph unicode="]" horiz-adv-x="663" d="M-61 -434l20 94h322l378 1784h-323l20 92h475l-419 -1970h-473z" />
<glyph unicode="^" horiz-adv-x="1232" d="M150 592l460 862v2h74q71 -154 238.5 -455.5t228.5 -425.5h-96l-408 805q-112 -240 -237.5 -479.5t-155.5 -306.5z" />
<glyph unicode="_" horiz-adv-x="1024" d="M-39 -285l8 39h1024l-8 -39h-1024z" />
<glyph unicode="`" horiz-adv-x="454" d="M334 1538h160l53 -229h-86z" />
<glyph unicode="a" horiz-adv-x="1101" d="M195 294q2 100 30 234q62 292 209 429t408 137q69 0 130.5 -18t120.5 -43.5t99 -33.5l-209 -997h-106l22 215q-13 -30 -53 -70.5t-96.5 -81.5t-134 -69.5t-152.5 -28.5q-97 0 -158.5 38.5t-86.5 112.5q-23 69 -23 161v15zM322 252q2 -38 10.5 -76.5t26 -63t48.5 -40 t74 -15.5q74 0 143.5 27t122 70t95 97t68.5 107t36 101l96 456q-67 39 -115 55.5t-118 16.5q-65 0 -121 -14.5t-97 -38.5t-76 -60.5t-58.5 -74t-44 -86.5t-32.5 -91t-24 -94q-11 -53 -18 -94q-6 -42 -12 -93q-4 -40 -5 -72q1 -9 1 -17z" />
<glyph unicode="b" horiz-adv-x="1052" d="M117 51l329 1575h138l-178 -840q24 50 69 102t104 98.5t134.5 76t150.5 29.5q273 0 273 -310q0 -95 -25 -219q-66 -307 -215.5 -447.5t-409.5 -140.5q-196 0 -370 76zM270 129q113 -70 269 -70q81 0 148 32t111.5 80t80 119t55.5 134t37 139q26 127 26 217 q0 219 -157 219q-91 0 -181.5 -58t-153.5 -141t-105 -165.5t-52 -140.5z" />
<glyph unicode="c" horiz-adv-x="1042" d="M221 539q34 153 94 260.5t146.5 170.5t191.5 91.5t240 28.5q174 0 317 -91l-22 -108q-5 2 -34 16.5t-35.5 17.5t-32 15t-36 15.5t-33 12.5t-36.5 12t-34 7.5t-38 6t-37 1.5q-71 0 -129.5 -10t-120.5 -39.5t-109.5 -78.5t-88 -131t-64.5 -193q-20 -97 -22 -173v-12 q0 -68 16 -116q18 -52 47 -88.5t73.5 -56t92.5 -28t107 -8.5q174 0 375 89q-9 -41 -15 -75.5t-8 -43.5q-113 -33 -195.5 -48.5t-177.5 -15.5q-279 -1 -386 139q-68 89 -68 240q0 87 22 193z" />
<glyph unicode="d" horiz-adv-x="1101" d="M196 271q-1 20 -1 41q0 95 24 223q32 148 90 260t131.5 177t153.5 96.5t166 31.5q146 0 325 -74l127 598h138l-346 -1632h-130q2 8 6.5 46.5t16.5 100.5q-64 -75 -164.5 -119.5t-224.5 -44.5q-87 0 -151 28.5t-109.5 94.5t-51.5 173zM330 296q2 -68 20 -116t62.5 -81 t113.5 -33q181 0 288 98t149 291l100 463q-60 30 -157.5 59t-166.5 29q-42 0 -80.5 -11t-68.5 -27.5t-57.5 -45t-46.5 -53t-38 -62t-30 -62.5t-23.5 -64.5t-17 -56.5t-12.5 -50.5t-9 -36.5q-14 -61 -21 -117q-5 -41 -5 -89q-1 -17 0 -35z" />
<glyph unicode="e" horiz-adv-x="1067" d="M194 282q-1 19 -2 39q0 84 23 185q58 282 209.5 433t396.5 151q329 0 329 -331q0 -96 -28 -220l-764 2q-12 -53 -20 -93t-14 -84q-5 -41 -5 -72q1 -3 1 -6q0 -33 5.5 -67t18.5 -58.5t34.5 -46t52.5 -35t73.5 -21t95.5 -7.5q110 0 200 51t148 115q72 -69 76 -72 q-191 -178 -442 -178q-133 0 -219.5 38t-124.5 107.5t-44 169.5zM391 625l631 2q10 60 10 112q0 81 -24 144q-24 57 -73 84.5t-134 27.5q-87 0 -159 -30.5t-121 -84t-81 -117t-49 -138.5z" />
<glyph unicode="f" horiz-adv-x="659" d="M231 0l205 973h-176l21 88h176l18 92q29 128 73.5 214.5t108.5 136.5t140.5 70.5t179.5 20.5q128 0 211 -63l-19 -105q-105 62 -215 62q-80 0 -137.5 -17.5t-90 -39t-57 -71.5t-34 -83.5t-25.5 -106.5q-3 -12 -4 -18l-18 -92h264l-21 -88h-264l-205 -973h-131z" />
<glyph unicode="g" horiz-adv-x="1153" d="M104 -270l97 65q35 -48 78 -82q100 -80 215 -80q72 0 133 16.5t101.5 41.5t74 61t52 67t33 69t19 58t8.5 42l29 133q-85 -88 -162.5 -124t-195.5 -36q-107 0 -186 31.5t-123.5 85t-65.5 128.5q-19 68 -19 143v14q2 82 23 176q61 277 199 415t393 138q102 0 168 -22 t102.5 -60t65.5 -105l45 156h92l-229 -1073q-5 -23 -8 -34t-15.5 -49t-26 -63.5t-39 -66.5t-54.5 -69.5t-73.5 -61.5t-95 -53.5t-119 -34t-145.5 -13.5q-247 0 -371 187zM330 373q-1 -20 -1 -38q0 -49 7 -85q9 -50 30.5 -87t47 -57t61 -32t65 -15.5t66.5 -3.5q33 0 56.5 2 t62.5 12t69 28.5t67.5 54.5t66.5 86t57.5 127t48.5 174q16 73 22 134q5 49 5 87q0 10 -1 18q-1 45 -13 79.5t-25 57t-36.5 38.5t-42 24t-48 12.5t-47.5 5t-47 0.5q-109 0 -163 -17q-174 -54 -257 -324q-16 -53 -29 -115q-19 -92 -22 -166z" />
<glyph unicode="h" horiz-adv-x="1165" d="M162 0l344 1628h135l-166 -786q62 99 201.5 174.5t263.5 75.5q149 0 214 -115q37 -66 38 -167q0 -75 -21 -169l-135 -641h-131l139 655q14 67 14 121q0 77 -28 127q-47 86 -174 86q-138 0 -264.5 -94t-151.5 -217l-143 -678h-135z" />
<glyph unicode="i" horiz-adv-x="468" d="M188 0l226 1061h139l-225 -1061h-140zM463 1456l37 174h174l-37 -174h-174z" />
<glyph unicode="j" horiz-adv-x="473" d="M-31 -438q4 14 11 45.5t12 46.5q147 114 186 293l238 1114h139l-233 -1094q-19 -92 -54.5 -164.5t-73 -113.5t-84 -70t-77.5 -40t-64 -17zM467 1456l37 174h172l-37 -174h-172z" />
<glyph unicode="k" horiz-adv-x="1101" d="M176 0l344 1626h139l-165 -784q246 284 510 284q129 0 189 -82q42 -57 42 -134q0 -33 -8 -70q-46 -216 -410 -430l225 -410h-161l-193 348l-137 -55l22 108q79 31 156 70t159 92.5t139 120t71 133.5q6 29 6 54q0 55 -30 94q-44 57 -130 57t-193.5 -58.5t-195.5 -156.5 t-111 -199l-129 -608h-139z" />
<glyph unicode="l" horiz-adv-x="468" d="M188 0l344 1626h136l-344 -1626h-136z" />
<glyph unicode="m" horiz-adv-x="1615" d="M152 0l223 1059h121l-35 -225q68 125 175.5 191.5t242.5 66.5q89 0 136 -61.5t54 -196.5q72 112 183.5 185t252.5 73q130 0 169 -102q17 -46 17 -116q0 -87 -26 -212l-133 -662h-131l143 676q12 62 18 106q4 28 4 56q0 14 -1 30q-3 42 -18 67t-47 40.5t-81 15.5 q-75 0 -140 -29t-110 -77.5t-75 -107.5t-43 -122l-140 -655h-139l139 655q22 111 22 185t-33 112q-33 40 -105 39q-74 0 -141 -35.5t-113.5 -91.5t-78 -119t-44.5 -124l-131 -621h-135z" />
<glyph unicode="n" horiz-adv-x="1150" d="M168 0l225 1061h121l-33 -211q60 97 200 169.5t265 72.5q152 0 216 -114q37 -65 37 -166q0 -75 -21 -171l-136 -641h-131l140 655q14 66 14 120q-1 77 -29 128q-48 86 -174 86q-138 0 -264.5 -94t-151.5 -217l-143 -678h-135z" />
<glyph unicode="o" horiz-adv-x="1153" d="M191 359q2 82 22 176q61 280 200 418.5t398 138.5q408 0 409 -363q0 -87 -24 -194q-30 -145 -74.5 -247.5t-115 -176.5t-172.5 -110t-240 -36q-109 0 -189.5 30.5t-126 82.5t-67.5 126q-20 67 -20 141v14zM332 368q-1 -19 -1 -38q1 -50 7 -86q8 -49 31 -84.5t47.5 -54.5 t62 -30t66.5 -13.5t69 -2.5q27 0 43 0.5t46.5 5t52 12.5t52 24.5t53.5 40t50.5 60t49.5 82.5t43 110t38 141q20 95 23 170q1 20 1 39q0 50 -6 84q-8 48 -33 81.5t-47.5 50.5t-62.5 25.5t-63 10t-63 1.5h-6q-41 0 -63.5 -1t-65 -10t-70 -25.5t-65.5 -50t-64.5 -81.5 t-54.5 -123t-48 -171q-19 -93 -22 -167z" />
<glyph unicode="p" horiz-adv-x="1114" d="M66 -436l317 1495h106l-26 -246q14 31 54 76.5t97.5 92t135.5 79.5t153 33q97 0 158.5 -38.5t86.5 -113.5q23 -69 23 -161v-15q-2 -100 -30 -234q-62 -289 -207.5 -418.5t-409.5 -129.5q-93 0 -229 39l-98 -459h-131zM324 145q60 -35 109 -48t124 -13q90 0 162.5 27 t118.5 68t81.5 103.5t54.5 119t36 130.5q11 53 18 94.5t12 92.5q5 40 5 72q0 9 -1 17q-1 39 -10 77.5t-26.5 63t-48.5 40t-74 15.5q-74 0 -143.5 -27t-122 -70t-95 -97t-68.5 -107t-36 -101z" />
<glyph unicode="q" horiz-adv-x="1105" d="M191 302q2 100 30 233q61 289 206.5 418.5t408.5 129.5q105 0 198.5 -28t153.5 -62l-303 -1425h-133l139 655q-45 -50 -83.5 -86t-94.5 -77t-120.5 -63t-133.5 -22q-97 0 -158.5 38.5t-86.5 113.5q-23 69 -23 160v15zM316 258q1 -38 10 -76.5t27 -63t49.5 -40t74.5 -15.5 q72 0 141.5 27t122 70t95.5 97t69.5 107t36.5 101l96 457q-128 79 -270 79q-324 0 -418 -466q-11 -53 -18 -94.5t-12 -92.5q-5 -40 -5 -72q0 -9 1 -18z" />
<glyph unicode="r" horiz-adv-x="751" d="M160 0l223 1059h113l-21 -234q32 50 54 82.5t56.5 71t67.5 60t78.5 36.5t97.5 15q91 0 158 -27l-33 -113q-60 20 -87 26.5t-60 6.5q-56 0 -112 -25.5t-111.5 -78.5t-102 -148.5t-73.5 -222.5l-107 -508h-141z" />
<glyph unicode="s" horiz-adv-x="966" d="M109 88q4 24 14 66.5t14 66.5q53 -35 88.5 -55.5t87.5 -45.5t104 -36.5t107 -11.5q274 0 322 211q3 14 3 27q0 24 -10 46q-15 34 -38.5 55.5t-78 44.5t-92.5 35t-114 33q-154 48 -202 114q-33 46 -33 114q0 30 6 65q8 33 23.5 65.5t48.5 69.5t77.5 64.5t116 46 t158.5 18.5q38 0 74 -3t70 -11t56.5 -13t55 -18l42.5 -17t41.5 -19t32.5 -15q-4 -17 -10 -52t-8 -46q-80 37 -124 55t-114 35.5t-135 17.5q-47 0 -83 -6.5t-74 -24.5t-64.5 -56t-38.5 -95q-6 -28 -5 -50t5 -39t17.5 -31t27.5 -24t40.5 -20.5t49.5 -18t62 -18.5 q212 -55 299 -131q67 -59 67 -144q0 -26 -6 -54q-32 -146 -164 -230t-323 -84q-138 0 -242 39.5t-151 79.5z" />
<glyph unicode="t" horiz-adv-x="704" d="M256 973l20 88h207l107 313h92l-66 -313h275l-21 -88h-274l-145 -688q-20 -95 -20 -137t20.5 -57t74.5 -15q79 0 158 33l-22 -103q-135 -31 -207 -31q-41 0 -69.5 6t-51 21.5t-32.5 42t-10 68.5t13 100l160 760h-209z" />
<glyph unicode="u" horiz-adv-x="1175" d="M226 232v21q0 66 18 150l141 658h139l-145 -676q-18 -91 -18 -157q1 -11 1 -22q4 -73 46.5 -111t130.5 -38q94 0 189.5 42.5t171.5 127t99 191.5l138 643h133l-226 -1061h-122l34 221q-72 -123 -194 -189.5t-275 -66.5q-57 0 -102 14t-82 45.5t-55 82.5t-22 125z" />
<glyph unicode="v" horiz-adv-x="1122" d="M293 1061h141l166 -940q2 0 298.5 468.5t295.5 471.5h137l-688 -1061h-129z" />
<glyph unicode="w" horiz-adv-x="1611" d="M281 1061h129l53 -959q1 0 142 239.5t282.5 479t142.5 240.5h111l129 -961l430 961h131l-492 -1061h-168l-104 977l-555 -977h-158z" />
<glyph unicode="x" horiz-adv-x="1046" d="M51 2l529 553l-261 506h160l195 -406l375 406h157l-475 -506l289 -553h-139l-248 455l-436 -455h-146z" />
<glyph unicode="y" horiz-adv-x="1095" d="M287 1061h139l170 -1061l569 1061h140l-854 -1495h-119l170 328z" />
<glyph unicode="z" horiz-adv-x="937" d="M76 0l22 109l865 862h-682l20 90h840l-21 -90l-874 -862h676l-23 -109h-823z" />
<glyph unicode="{" horiz-adv-x="915" d="M242 508l20 94q182 66 223 209l68 317q21 108 74 190.5t125.5 130t152 70.5t164.5 23h139l-20 -96h-119q-21 0 -36.5 -0.5t-51 -5t-63 -12t-63 -24t-61.5 -39.5t-48.5 -59.5t-32.5 -82.5l-86 -410q-18 -78 -63 -143t-113 -76l-17 -78q44 -9 68 -42t25 -76t-9 -91 l-90 -430q-13 -62 3.5 -107t44.5 -66t75.5 -32.5t72 -12.5t58.5 -1h6h119l-21 -94h-139q-68 0 -125 13.5t-107 44t-78.5 80.5t-38.5 122.5t13 169.5l66 313q6 23 6.5 43t-4 36.5t-10.5 30t-18 25t-21 19.5t-24 16t-23 12.5t-22.5 10.5t-18.5 8z" />
<glyph unicode="|" horiz-adv-x="468" d="M102 -479l453 2136h96l-452 -2136h-97z" />
<glyph unicode="}" horiz-adv-x="909" d="M-16 -436l18 94h119q130 0 206 33q121 53 150 186l90 430q44 184 174 207l17 78q-44 7 -67.5 45t-23 84t8.5 92l86 410q14 63 -3.5 108.5t-47 67t-78.5 33t-73.5 13t-57.5 1.5h-119l20 96h140q88 0 157 -22.5t120.5 -72t67.5 -128t-3 -191.5l-68 -315q-36 -154 133 -211 l-20 -96q-76 -28 -139 -80.5t-82 -118.5l-66 -313q-25 -118 -78.5 -204t-125.5 -134t-150.5 -70t-167.5 -22h-137z" />
<glyph unicode="~" horiz-adv-x="1228" d="M217 485q51 24 75 34t62.5 20t73.5 10q96 0 209 -28.5t221 -28.5q104 0 203 45v-93q-137 -57 -203 -57q-102 0 -218 27.5t-216 27.5q-69 0 -203 -39q0 20 -2 43t-2 39z" />
<glyph unicode="&#xa1;" horiz-adv-x="540" d="M121 -444l94 436l178 602h43l-76 -602l-94 -436h-145zM383 883l37 172h172l-37 -172h-172z" />
<glyph unicode="&#xa2;" horiz-adv-x="1042" d="M221 539q56 264 214.5 404t383.5 140l33 154h68l-33 -154q191 -17 325 -75q-28 -79 -36 -97q-56 26 -87.5 39.5t-92 30t-126.5 23.5l-202 -947q210 19 381 93q-23 -104 -25 -121q-78 -21 -116.5 -30.5t-108 -19t-150.5 -12.5l-47 -221h-67l49 225q-234 0 -326 152 t-37 416zM360 541q-49 -220 18.5 -353t221.5 -133l203 949q-131 0 -265 -130t-178 -331v-2z" />
<glyph unicode="&#xa3;" horiz-adv-x="1198" d="M100 0l19 88q232 34 297 332l67 317h-100l20 92h101l76 357q18 89 66 158t113.5 109t138 60.5t146.5 20.5q144 0 218 -53l-19 -88q-100 51 -203 51q-77 0 -133.5 -24.5t-91 -71t-53.5 -95t-33 -114.5l-65 -310h231l-21 -92h-231l-68 -317q-30 -137 -86.5 -209.5 t-148.5 -120.5l360 -4q398 0 490 320q38 182 -49 278q11 10 33 28.5t32 28.5q105 -127 60 -335q-24 -106 -81 -187.5t-135 -129.5t-167.5 -70.5t-186.5 -18.5h-596z" />
<glyph unicode="&#xa5;" horiz-adv-x="1413" d="M272 154l19 82h416l73 346h-415l18 84h350l-366 831h170l325 -825q467 553 701 825h172l-719 -831h356l-18 -84h-422l-74 -346h422l-18 -82h-422l-31 -154h-152l31 154h-416z" />
<glyph unicode="&#xa7;" horiz-adv-x="1138" d="M88 -319l31 137q198 -152 385 -152q64 0 113 8.5t94.5 30t75.5 64t42 104.5q22 102 -76.5 187t-250.5 85q-88 0 -151 31t-94 85t-40 127.5t12 158.5q9 41 25.5 82.5t48.5 91t74 91t107 80t143 62.5q-84 58 -109.5 128t-1.5 186q8 35 22.5 67t46.5 68.5t76.5 62.5t116 43 t160.5 17q216 0 375 -94l-21 -101q-100 55 -202 81t-170 26q-48 0 -85.5 -6.5t-76 -24.5t-65 -55.5t-38.5 -94.5q-51 -244 285 -317q46 -10 82 -24t69.5 -36.5t54 -51.5t35 -70t12.5 -92.5t-13 -118.5q-9 -42 -27.5 -85t-51.5 -90.5t-76.5 -86t-106.5 -69.5t-136 -44 q232 -92 185 -299q-32 -148 -163 -228.5t-323 -80.5q-37 0 -73 4t-65 9.5t-60 15t-51 17t-46.5 20t-38.5 19t-33.5 18.5t-25.5 14zM354.5 379q9.5 -79 85.5 -111t254 -32q110 0 212 87t130 224q13 62 12.5 108t-8 78.5t-35.5 54.5t-53 34.5t-78 20t-94 10t-116 5.5 q-87 0 -176 -83t-109 -185q-34 -132 -24.5 -211z" />
<glyph unicode="&#xa8;" horiz-adv-x="454" d="M209 1247l43 201h170l-43 -201h-170zM209 1247l43 201h170l-43 -201h-170zM612 1247l43 201h172l-43 -201h-172zM612 1247l43 201h172l-43 -201h-172z" />
<glyph unicode="&#xaa;" horiz-adv-x="567" d="M291 1044q13 68 63 113t138 45h31.5h28t22 0.5t21 1.5l16.5 3t17 5l14 7t15 10q10 48 12.5 77t-0.5 47.5t-18 26.5t-31.5 10.5t-50.5 2.5q-89 0 -157 -29l-11 51q92 29 189 29q33 0 56.5 -4.5t46 -18t32 -36.5t13 -60.5t-10.5 -91.5l-72 -344h-51l-14 47 q-28 -25 -69.5 -39t-78.5 -14q-100 0 -134.5 40t-16.5 121zM360 1044q-11 -58 15.5 -87t77.5 -29q72 0 153 63l39 183q-44 -17 -141 -17q-20 0 -29.5 -0.5t-27.5 -3t-28.5 -10t-23 -19t-21 -32t-14.5 -48.5z" />
<glyph unicode="&#xab;" horiz-adv-x="1150" d="M254 578q6 24 35 40l399 248q-1 -3 -3.5 -16t-3.5 -17t-3.5 -14.5t-5 -15t-6.5 -11.5t-9.5 -11t-11.5 -7l-319 -196q202 -175 229 -191q11 -9 16 -20t3.5 -29t-3 -23.5t-6.5 -27.5l-293 250q-21 15 -18 41zM766 578q6 24 35 40l399 248q-1 -3 -3.5 -16t-3.5 -17 t-3.5 -14.5t-5 -15t-6.5 -11.5t-9.5 -11t-11.5 -7l-319 -196q202 -175 229 -191q11 -9 16 -20t3.5 -29t-3 -23.5t-6.5 -27.5l-293 250q-21 15 -18 41z" />
<glyph unicode="&#xad;" horiz-adv-x="815" d="M246 518l22 105h574l-23 -105h-573z" />
<glyph unicode="&#xb0;" horiz-adv-x="819" d="M131 1182q0 141 75 215t210 76q151 -1 220 -74t69 -217q0 -132 -70 -209.5t-219 -77.5q-285 0 -285 287zM213 1182q0 -64 18 -110.5t40.5 -68t56 -33.5t49.5 -13t36 -1h3q12 0 22.5 0.5t34 5t42 12.5t41 25t37.5 40t25.5 60t10.5 83q0 64 -20 110t-44.5 67.5t-60.5 33.5 t-52 13t-36 1q-12 0 -22 -0.5t-32.5 -5t-40 -12t-39 -24.5t-35.5 -40t-24 -60t-10 -83z" />
<glyph unicode="&#xb2;" horiz-adv-x="712" d="M209 614q47 152 150.5 250t261.5 164q100 46 157.5 108t71.5 130q19 87 -22.5 142.5t-161.5 55.5q-117 0 -217 -90q-12 4 -33 21q120 92 258 92q133 0 188 -62t33 -159q-38 -173 -268 -275q-71 -32 -120.5 -61t-98.5 -71t-80 -97t-45 -125h508l-7 -23h-575z" />
<glyph unicode="&#xb3;" horiz-adv-x="698" d="M176 641l8 39h2q134 -41 273 -41q80 0 145 22t104 56.5t60.5 69.5t28.5 69q19 74 -40.5 141.5t-183.5 67.5h-86l7 27h86q220 0 262 190q14 75 -26.5 126.5t-149.5 51.5q-115 0 -301 -76l6 29q170 76 301 76q55 0 99 -11t78.5 -34t48 -64.5t1.5 -97.5q-34 -156 -213 -205 q18 -3 33.5 -7t35.5 -11t35 -15.5t32 -21.5t26 -28.5t18 -36t7 -45.5t-7 -56q-23 -104 -136 -178t-273 -74q-189 0 -281 37z" />
<glyph unicode="&#xb4;" horiz-adv-x="454" d="M416 1257l172 263h209l-256 -263h-125z" />
<glyph unicode="&#xb7;" horiz-adv-x="593" d="M350 627l37 174h174l-37 -174h-174z" />
<glyph unicode="&#xb8;" horiz-adv-x="501" d="M31 -442l8 41q47 -21 94 -21q123 0 148 113q27 125 -99 125q-28 0 -78 -11q9 7 32 38.5t57.5 80.5t58.5 80h14l-119 -164q53 5 93.5 -2t63.5 -22t37.5 -36t15 -43.5t-2.5 -45.5q-13 -67 -64.5 -104.5t-131.5 -45.5q-80 0 -127 17z" />
<glyph unicode="&#xb9;" horiz-adv-x="608" d="M459 741l153 723l-53 -8l-37 -6l31 14l49 23h47l-160 -746h-30z" />
<glyph unicode="&#xba;" horiz-adv-x="819" d="M381 1182q30 141 120.5 215t225.5 76q151 -1 204.5 -74t22.5 -217q-26 -131 -113.5 -209t-236.5 -78q-285 0 -223 287zM463 1182q-38 -185 88 -219q25 -7 67 -7q12 0 22.5 0.5t34.5 5t44.5 12.5t46.5 25t46 40t38.5 60t28.5 83q8 37 8 67.5t-5 52.5t-17 39.5t-24 28 t-29 18.5t-29.5 11.5t-29 5.5t-23 2h-15.5q-19 0 -35.5 -1.5t-53 -13.5t-64.5 -33.5t-56.5 -67.5t-42.5 -109z" />
<glyph unicode="&#xbb;" horiz-adv-x="1136" d="M223 287q0 1 2.5 11l3 12t3.5 11.5t4.5 13t5 11.5t7 12t8 10t10 10.5t12.5 8.5q229 136 307 191l-234 196q-15 9 -15.5 32.5t7.5 49.5q1 7 2 10l297 -248q20 -15 14 -40q-3 -26 -34 -41zM735 287q0 1 2.5 11l3 12t3.5 11.5t4.5 13t5 11.5t7 12t8 10t10 10.5t12.5 8.5 q229 136 307 191l-234 196q-15 9 -15.5 32.5t7.5 49.5q1 7 2 10l297 -248q20 -15 14 -40q-3 -26 -34 -41z" />
<glyph unicode="&#xbf;" horiz-adv-x="1150" d="M137 -121q14 62 41 112t74.5 95.5t87.5 75t115 80.5q55 37 81 55t73.5 57t74.5 70.5t55.5 78t44.5 97.5h78q-24 -80 -60 -145.5t-82.5 -114.5t-85 -80.5t-91.5 -66.5q-47 -33 -69 -50t-59.5 -50t-57.5 -60.5t-40 -68t-30 -85.5q-26 -118 49 -187t258 -69q176 0 414 103 l-29 -140q-115 -36 -200.5 -51.5t-205.5 -15.5q-113 0 -200 20.5t-148 63t-84.5 112.5t-3.5 164zM788 887l35 172h172l-34 -172h-173z" />
<glyph unicode="&#xc0;" d="M23 0l886 1464h187l204 -1464h-135l-67 557h-598l-344 -557h-133zM539 643h551l-101 754zM934 1942h160l53 -230h-86z" />
<glyph unicode="&#xc1;" d="M23 0l886 1464h187l204 -1464h-135l-67 557h-598l-344 -557h-133zM539 643h551l-101 754zM842 1661l172 262h209l-256 -262h-125z" />
<glyph unicode="&#xc2;" d="M23 0l886 1464h187l204 -1464h-135l-67 557h-598l-344 -557h-133zM539 643h551l-101 754zM758 1683l268 265h80l154 -265h-89l-118 211l-207 -211h-88z" />
<glyph unicode="&#xc3;" d="M23 0l886 1464h187l204 -1464h-135l-67 557h-598l-344 -557h-133zM539 643h551l-101 754zM741 1759l17 88q41 41 127 41q54 0 154.5 -28.5t158.5 -28.5q83 0 133 20l-16 -77q-70 -48 -137 -48q-61 0 -160 27t-162 27q-60 0 -115 -21z" />
<glyph unicode="&#xc4;" d="M23 0l886 1464h187l204 -1464h-135l-67 557h-598l-344 -557h-133zM539 643h551l-101 754zM715 1651l43 200h170l-43 -200h-170zM715 1651l43 200h170l-43 -200h-170zM1118 1651l43 200h172l-43 -200h-172zM1118 1651l43 200h172l-43 -200h-172z" />
<glyph unicode="&#xc5;" d="M23 0l886 1464h187l204 -1464h-135l-67 557h-598l-344 -557h-133zM539 643h551l-101 754zM784 1726q29 137 116 208t218 73q146 -1 197.5 -71.5t21.5 -209.5q-26 -127 -109.5 -201.5t-228.5 -74.5t-193 71.5t-22 204.5zM816.5 1641q-0.5 -38 8.5 -64t21.5 -45.5 t32.5 -30.5t35 -18t36 -9.5t30 -3t21 -0.5h3q15 0 26.5 0.5t39.5 5.5t51 14t53 28t53 45t44 68.5t32 94.5q9 41 9 76t-6 59.5t-19 44.5t-27 32t-33.5 21t-34 13.5t-33.5 6.5t-27.5 2.5t-19.5 0.5q-17 0 -31 -1.5t-46 -7.5t-59.5 -23t-57.5 -43.5t-54 -73t-37 -107.5 q-10 -47 -10.5 -85z" />
<glyph unicode="&#xc6;" horiz-adv-x="2131" d="M127 2l1384 1460h885l-18 -86h-709q-33 -158 -61 -294t-40 -195t-22 -99h525l-19 -88h-524l-125 -612h754l-19 -88h-899l119 559h-576l-540 -557h-115zM846 645h528l160 731z" />
<glyph unicode="&#xc7;" horiz-adv-x="1392" d="M255.5 522q-4.5 98 18.5 203q38 183 128.5 331.5t213.5 243.5t270 146t304 51q163 0 379 -67l-27 -125q-100 51 -187 78.5t-184 27.5q-16 0 -41.5 -2t-86.5 -16.5t-120 -39t-134 -76t-136.5 -120.5t-119 -181t-91.5 -249q-22 -109 -22 -201t15 -156.5t49 -116.5t67.5 -83 t82 -54t81.5 -33t77.5 -15.5t58 -6t34.5 -0.5q205 0 440 160l-29 -141q-217 -123 -434 -123q-119 0 -217.5 27.5t-168.5 77.5t-120.5 120.5t-73 156t-27 183.5zM594 -436l8 41q46 -21 94 -21q123 0 148 113q27 125 -99 125q-32 0 -77 -10q9 7 31.5 38.5t56.5 80t59 79.5h14 l-118 -164q53 5 93.5 -2t63.5 -22t37.5 -36t15 -43.5t-2.5 -45.5q-13 -67 -64.5 -104.5t-132.5 -45.5q-80 0 -127 17z" />
<glyph unicode="&#xc8;" horiz-adv-x="1163" d="M193 0l309 1462h850l-19 -86h-721l-125 -588h535l-18 -88h-535l-129 -612h770l-18 -88h-899zM860 1942h160l53 -230h-86z" />
<glyph unicode="&#xc9;" horiz-adv-x="1163" d="M193 0l309 1462h850l-19 -86h-721l-125 -588h535l-18 -88h-535l-129 -612h770l-18 -88h-899zM768 1661l172 262h209l-256 -262h-125z" />
<glyph unicode="&#xca;" horiz-adv-x="1163" d="M193 0l309 1462h850l-19 -86h-721l-125 -588h535l-18 -88h-535l-129 -612h770l-18 -88h-899zM684 1683l268 265h80l154 -265h-88l-119 211l-207 -211h-88z" />
<glyph unicode="&#xcb;" horiz-adv-x="1163" d="M193 0l309 1462h850l-19 -86h-721l-125 -588h535l-18 -88h-535l-129 -612h770l-18 -88h-899zM641 1651l43 200h170l-43 -200h-170zM641 1651l43 200h170l-43 -200h-170zM1044 1651l43 200h173l-43 -200h-173zM1044 1651l43 200h173l-43 -200h-173z" />
<glyph unicode="&#xcc;" horiz-adv-x="530" d="M211 0l309 1464h131l-309 -1464h-131zM543 1942h159l54 -230h-86z" />
<glyph unicode="&#xcd;" horiz-adv-x="530" d="M211 0l309 1464h131l-309 -1464h-131zM455 1661l172 262h209l-256 -262h-125z" />
<glyph unicode="&#xce;" horiz-adv-x="530" d="M211 0l309 1464h131l-309 -1464h-131zM369 1683l268 265h80l153 -265h-88l-118 211l-207 -211h-88z" />
<glyph unicode="&#xcf;" horiz-adv-x="530" d="M211 0l309 1464h131l-309 -1464h-131zM326 1651l43 200h170l-43 -200h-170zM326 1651l43 200h170l-43 -200h-170zM729 1651l43 200h172l-43 -200h-172zM729 1651l43 200h172l-43 -200h-172z" />
<glyph unicode="&#xd1;" horiz-adv-x="1456" d="M186 0l310 1462h194l537 -1306l276 1306h135l-309 -1462h-153l-566 1378l-293 -1378h-131zM905 1759l17 88q41 41 127 41q54 0 154.5 -28.5t158.5 -28.5q83 0 133 20l-16 -77q-70 -48 -138 -48q-61 0 -159.5 27t-161.5 27q-60 0 -115 -21z" />
<glyph unicode="&#xd2;" horiz-adv-x="1687" d="M250 729q79 372 320.5 567t615.5 201q394 -6 539.5 -196.5t64.5 -571.5q-28 -133 -78.5 -247t-130 -211.5t-182 -166t-240.5 -107t-301 -38.5q-765 0 -608 770zM385 528q-2 -93 11 -158.5t44 -118.5t63 -85.5t80 -56t82.5 -34.5t83 -17t69.5 -6.5t52 -0.5h9q23 0 43 1 t69.5 7t92.5 17.5t103.5 35.5t111.5 56.5t108 85t101.5 118t83.5 158t61 201.5q23 109 24 201.5t-15 157.5t-50 117.5t-69.5 84.5t-85.5 56t-87.5 35t-85 17t-68 6.5t-47.5 0.5h-4q-26 0 -48.5 -1t-70.5 -7.5t-89.5 -18t-99 -35.5t-106 -56.5t-102.5 -84.5t-96.5 -117 t-80.5 -156.5t-62 -199.5q-23 -110 -25 -203zM1122 1942h160l53 -230h-86z" />
<glyph unicode="&#xd3;" horiz-adv-x="1687" d="M250 729q79 372 320.5 567t615.5 201q394 -6 539.5 -196.5t64.5 -571.5q-28 -133 -78.5 -247t-130 -211.5t-182 -166t-240.5 -107t-301 -38.5q-765 0 -608 770zM385 528q-2 -93 11 -158.5t44 -118.5t63 -85.5t80 -56t82.5 -34.5t83 -17t69.5 -6.5t52 -0.5h9q23 0 43 1 t69.5 7t92.5 17.5t103.5 35.5t111.5 56.5t108 85t101.5 118t83.5 158t61 201.5q23 109 24 201.5t-15 157.5t-50 117.5t-69.5 84.5t-85.5 56t-87.5 35t-85 17t-68 6.5t-47.5 0.5h-4q-26 0 -48.5 -1t-70.5 -7.5t-89.5 -18t-99 -35.5t-106 -56.5t-102.5 -84.5t-96.5 -117 t-80.5 -156.5t-62 -199.5q-23 -110 -25 -203zM1030 1661l172 262h209l-256 -262h-125z" />
<glyph unicode="&#xd4;" horiz-adv-x="1687" d="M250 729q79 372 320.5 567t615.5 201q394 -6 539.5 -196.5t64.5 -571.5q-28 -133 -78.5 -247t-130 -211.5t-182 -166t-240.5 -107t-301 -38.5q-765 0 -608 770zM385 528q-2 -93 11 -158.5t44 -118.5t63 -85.5t80 -56t82.5 -34.5t83 -17t69.5 -6.5t52 -0.5h9q23 0 43 1 t69.5 7t92.5 17.5t103.5 35.5t111.5 56.5t108 85t101.5 118t83.5 158t61 201.5q23 109 24 201.5t-15 157.5t-50 117.5t-69.5 84.5t-85.5 56t-87.5 35t-85 17t-68 6.5t-47.5 0.5h-4q-26 0 -48.5 -1t-70.5 -7.5t-89.5 -18t-99 -35.5t-106 -56.5t-102.5 -84.5t-96.5 -117 t-80.5 -156.5t-62 -199.5q-23 -110 -25 -203zM946 1683l268 265h80l154 -265h-88l-119 211l-207 -211h-88z" />
<glyph unicode="&#xd5;" horiz-adv-x="1687" d="M250 729q79 372 320.5 567t615.5 201q394 -6 539.5 -196.5t64.5 -571.5q-28 -133 -78.5 -247t-130 -211.5t-182 -166t-240.5 -107t-301 -38.5q-765 0 -608 770zM385 528q-2 -93 11 -158.5t44 -118.5t63 -85.5t80 -56t82.5 -34.5t83 -17t69.5 -6.5t52 -0.5h9q23 0 43 1 t69.5 7t92.5 17.5t103.5 35.5t111.5 56.5t108 85t101.5 118t83.5 158t61 201.5q23 109 24 201.5t-15 157.5t-50 117.5t-69.5 84.5t-85.5 56t-87.5 35t-85 17t-68 6.5t-47.5 0.5h-4q-26 0 -48.5 -1t-70.5 -7.5t-89.5 -18t-99 -35.5t-106 -56.5t-102.5 -84.5t-96.5 -117 t-80.5 -156.5t-62 -199.5q-23 -110 -25 -203zM930 1759l16 88q41 41 127 41q54 0 154.5 -28.5t158.5 -28.5q84 0 134 20l-17 -77q-70 -48 -137 -48q-61 0 -160 27t-162 27q-58 0 -114 -21z" />
<glyph unicode="&#xd6;" horiz-adv-x="1687" d="M250 729q79 372 320.5 567t615.5 201q394 -6 539.5 -196.5t64.5 -571.5q-28 -133 -78.5 -247t-130 -211.5t-182 -166t-240.5 -107t-301 -38.5q-765 0 -608 770zM385 528q-2 -93 11 -158.5t44 -118.5t63 -85.5t80 -56t82.5 -34.5t83 -17t69.5 -6.5t52 -0.5h9q23 0 43 1 t69.5 7t92.5 17.5t103.5 35.5t111.5 56.5t108 85t101.5 118t83.5 158t61 201.5q23 109 24 201.5t-15 157.5t-50 117.5t-69.5 84.5t-85.5 56t-87.5 35t-85 17t-68 6.5t-47.5 0.5h-4q-26 0 -48.5 -1t-70.5 -7.5t-89.5 -18t-99 -35.5t-106 -56.5t-102.5 -84.5t-96.5 -117 t-80.5 -156.5t-62 -199.5q-23 -110 -25 -203zM903 1651l43 200h170l-43 -200h-170zM903 1651l43 200h170l-43 -200h-170zM1307 1651l43 200h172l-43 -200h-172zM1307 1651l43 200h172l-43 -200h-172z" />
<glyph unicode="&#xd8;" horiz-adv-x="1687" d="M250 729q38 178 127 323.5t212 242.5t276 149.5t321 52.5q147 0 268 -31q7 14 14 21q1 3 5.5 7t5.5 7q4 4 4 6h39l-31 -49q215 -90 287 -268t12 -461q-28 -133 -78.5 -247t-130 -211.5t-182 -166t-240.5 -107t-301 -38.5q-115 0 -262 25l-14 -25h-35l20 31 q-433 159 -317 739zM410 731q-97 -469 213 -643l405 664l375 622q-80 23 -124 28t-114 5q-27 0 -49.5 -1t-71 -7.5t-90 -18t-99 -35t-105.5 -56.5t-102 -85t-96 -117t-80 -156.5t-62 -199.5zM653 76q87 -25 226 -25q23 0 43 1t69.5 7t92.5 17.5t103.5 35.5t111.5 56.5 t108 85t101.5 118t83.5 158t61 201.5q97 437 -219 631z" />
<glyph unicode="&#xd9;" horiz-adv-x="1468" d="M276.5 363.5q-1.5 39.5 6 100.5t13.5 93t17 86l174 821h134l-177 -837q-9 -36 -16 -72t-10.5 -94t2 -108t27.5 -104t60 -92t105.5 -62.5t157.5 -24.5q86 0 159.5 22.5t125 58t94 85t69 98t47.5 104t32 94.5t20 77q3 13 4 18l176 837h129l-176 -837q-39 -174 -74 -261 q-146 -357 -542 -390q-40 -3 -84 -3q-93 0 -167.5 16t-125.5 40.5t-86.5 66t-56 78.5t-28.5 93.5t-9.5 96zM1012 1942h159l54 -230h-86z" />
<glyph unicode="&#xda;" horiz-adv-x="1468" d="M276.5 363.5q-1.5 39.5 6 100.5t13.5 93t17 86l174 821h134l-177 -837q-9 -36 -16 -72t-10.5 -94t2 -108t27.5 -104t60 -92t105.5 -62.5t157.5 -24.5q86 0 159.5 22.5t125 58t94 85t69 98t47.5 104t32 94.5t20 77q3 13 4 18l176 837h129l-176 -837q-39 -174 -74 -261 q-146 -357 -542 -390q-40 -3 -84 -3q-93 0 -167.5 16t-125.5 40.5t-86.5 66t-56 78.5t-28.5 93.5t-9.5 96zM922 1661l172 262h209l-256 -262h-125z" />
<glyph unicode="&#xdb;" horiz-adv-x="1468" d="M276.5 363.5q-1.5 39.5 6 100.5t13.5 93t17 86l174 821h134l-177 -837q-9 -36 -16 -72t-10.5 -94t2 -108t27.5 -104t60 -92t105.5 -62.5t157.5 -24.5q86 0 159.5 22.5t125 58t94 85t69 98t47.5 104t32 94.5t20 77q3 13 4 18l176 837h129l-176 -837q-39 -174 -74 -261 q-146 -357 -542 -390q-40 -3 -84 -3q-93 0 -167.5 16t-125.5 40.5t-86.5 66t-56 78.5t-28.5 93.5t-9.5 96zM838 1683l268 265h80l153 -265h-88l-118 211l-207 -211h-88z" />
<glyph unicode="&#xdc;" horiz-adv-x="1468" d="M276.5 363.5q-1.5 39.5 6 100.5t13.5 93t17 86l174 821h134l-177 -837q-9 -36 -16 -72t-10.5 -94t2 -108t27.5 -104t60 -92t105.5 -62.5t157.5 -24.5q86 0 159.5 22.5t125 58t94 85t69 98t47.5 104t32 94.5t20 77q3 13 4 18l176 837h129l-176 -837q-39 -174 -74 -261 q-146 -357 -542 -390q-40 -3 -84 -3q-93 0 -167.5 16t-125.5 40.5t-86.5 66t-56 78.5t-28.5 93.5t-9.5 96zM795 1651l43 200h170l-43 -200h-170zM795 1651l43 200h170l-43 -200h-170zM1198 1651l43 200h172l-43 -200h-172zM1198 1651l43 200h172l-43 -200h-172z" />
<glyph unicode="&#xdd;" horiz-adv-x="1413" d="M369 1464h149l340 -811l690 811h152l-787 -915l-116 -551h-148l117 551zM893 1661l172 262h209l-256 -262h-125z" />
<glyph unicode="&#xdf;" horiz-adv-x="1171" d="M158 0l194 922q21 93 33.5 144t37 127.5t49 118t65.5 92t89.5 75.5t117 43t153.5 18q37 0 73.5 -4.5t77.5 -16t73.5 -30.5t63 -48.5t45.5 -70t20.5 -94t-11.5 -121.5q-11 -56 -37 -106.5t-69.5 -96.5t-113 -80.5t-157.5 -52.5q59 -15 106.5 -37.5t90 -56.5t65.5 -77.5 t33.5 -102t-6.5 -129.5q-17 -81 -47.5 -146t-67 -109t-85 -77t-95 -52t-104 -30t-105 -14.5t-104.5 -3.5l20 96q364 35 428 340q11 49 13 86t-10.5 78.5t-43 72.5t-89 59.5t-144.5 47.5l22 106q165 8 258 75t125 212q13 80 2 133t-50.5 85t-88 45.5t-111.5 13.5 q-70 0 -120.5 -15.5t-86 -43.5t-63 -82t-46 -115t-40.5 -158l-215 -1020h-145z" />
<glyph unicode="&#xe0;" horiz-adv-x="948" d="M195 293.5q2 100.5 30 234.5q62 292 209 429t408 137q69 0 130.5 -18t120.5 -43.5t99 -33.5l-209 -997h-106l22 215q-13 -30 -53 -70.5t-96.5 -81.5t-134 -69.5t-152.5 -28.5q-97 0 -158.5 38.5t-86.5 113t-23 175zM321.5 252q1.5 -38 10.5 -76.5t26.5 -63t48.5 -40 t74 -15.5q74 0 143.5 27t122 70t95 97t68.5 107t36 101l96 456q-67 39 -115 55.5t-118 16.5q-65 0 -121 -14.5t-97 -38.5t-76 -60.5t-58.5 -74t-44 -86.5t-32.5 -91t-24 -94q-11 -53 -18 -94.5t-12.5 -92.5t-4 -89zM668 1538h159l54 -229h-86z" />
<glyph unicode="&#xe1;" horiz-adv-x="948" d="M195 293.5q2 100.5 30 234.5q62 292 209 429t408 137q69 0 130.5 -18t120.5 -43.5t99 -33.5l-209 -997h-106l22 215q-13 -30 -53 -70.5t-96.5 -81.5t-134 -69.5t-152.5 -28.5q-97 0 -158.5 38.5t-86.5 113t-23 175zM321.5 252q1.5 -38 10.5 -76.5t26.5 -63t48.5 -40 t74 -15.5q74 0 143.5 27t122 70t95 97t68.5 107t36 101l96 456q-67 39 -115 55.5t-118 16.5q-65 0 -121 -14.5t-97 -38.5t-76 -60.5t-58.5 -74t-44 -86.5t-32.5 -91t-24 -94q-11 -53 -18 -94.5t-12.5 -92.5t-4 -89zM578 1257l172 263h208l-256 -263h-124z" />
<glyph unicode="&#xe2;" horiz-adv-x="948" d="M195 293.5q2 100.5 30 234.5q62 292 209 429t408 137q69 0 130.5 -18t120.5 -43.5t99 -33.5l-209 -997h-106l22 215q-13 -30 -53 -70.5t-96.5 -81.5t-134 -69.5t-152.5 -28.5q-97 0 -158.5 38.5t-86.5 113t-23 175zM321.5 252q1.5 -38 10.5 -76.5t26.5 -63t48.5 -40 t74 -15.5q74 0 143.5 27t122 70t95 97t68.5 107t36 101l96 456q-67 39 -115 55.5t-118 16.5q-65 0 -121 -14.5t-97 -38.5t-76 -60.5t-58.5 -74t-44 -86.5t-32.5 -91t-24 -94q-11 -53 -18 -94.5t-12.5 -92.5t-4 -89zM494 1280l268 264h80l153 -264h-88l-119 211l-206 -211 h-88z" />
<glyph unicode="&#xe3;" horiz-adv-x="948" d="M195 293.5q2 100.5 30 234.5q62 292 209 429t408 137q69 0 130.5 -18t120.5 -43.5t99 -33.5l-209 -997h-106l22 215q-13 -30 -53 -70.5t-96.5 -81.5t-134 -69.5t-152.5 -28.5q-97 0 -158.5 38.5t-86.5 113t-23 175zM321.5 252q1.5 -38 10.5 -76.5t26.5 -63t48.5 -40 t74 -15.5q74 0 143.5 27t122 70t95 97t68.5 107t36 101l96 456q-67 39 -115 55.5t-118 16.5q-65 0 -121 -14.5t-97 -38.5t-76 -60.5t-58.5 -74t-44 -86.5t-32.5 -91t-24 -94q-11 -53 -18 -94.5t-12.5 -92.5t-4 -89zM477 1356l17 88q41 41 127 41q54 0 154.5 -29t158.5 -29 q80 0 133 21l-16 -78q-68 -47 -138 -47q-61 0 -159.5 26.5t-161.5 26.5q-62 0 -115 -20z" />
<glyph unicode="&#xe4;" horiz-adv-x="948" d="M195 293.5q2 100.5 30 234.5q62 292 209 429t408 137q69 0 130.5 -18t120.5 -43.5t99 -33.5l-209 -997h-106l22 215q-13 -30 -53 -70.5t-96.5 -81.5t-134 -69.5t-152.5 -28.5q-97 0 -158.5 38.5t-86.5 113t-23 175zM321.5 252q1.5 -38 10.5 -76.5t26.5 -63t48.5 -40 t74 -15.5q74 0 143.5 27t122 70t95 97t68.5 107t36 101l96 456q-67 39 -115 55.5t-118 16.5q-65 0 -121 -14.5t-97 -38.5t-76 -60.5t-58.5 -74t-44 -86.5t-32.5 -91t-24 -94q-11 -53 -18 -94.5t-12.5 -92.5t-4 -89zM451 1247l43 201h170l-43 -201h-170zM451 1247l43 201h170 l-43 -201h-170zM854 1247l43 201h172l-43 -201h-172zM854 1247l43 201h172l-43 -201h-172z" />
<glyph unicode="&#xe5;" horiz-adv-x="948" d="M195 293.5q2 100.5 30 234.5q62 292 209 429t408 137q69 0 130.5 -18t120.5 -43.5t99 -33.5l-209 -997h-106l22 215q-13 -30 -53 -70.5t-96.5 -81.5t-134 -69.5t-152.5 -28.5q-97 0 -158.5 38.5t-86.5 113t-23 175zM321.5 252q1.5 -38 10.5 -76.5t26.5 -63t48.5 -40 t74 -15.5q74 0 143.5 27t122 70t95 97t68.5 107t36 101l96 456q-67 39 -115 55.5t-118 16.5q-65 0 -121 -14.5t-97 -38.5t-76 -60.5t-58.5 -74t-44 -86.5t-32.5 -91t-24 -94q-11 -53 -18 -94.5t-12.5 -92.5t-4 -89zM592 1518q29 137 115.5 207.5t218.5 72.5 q146 -1 197.5 -71.5t21.5 -208.5q-26 -127 -109.5 -202t-228.5 -75t-193 72t-22 205zM625 1441q-1 -35 4 -59.5t17 -44.5t24.5 -32t31 -21t31.5 -13t31 -6.5t25.5 -2.5h18.5h3q15 0 26.5 0.5t39.5 5.5t51 14t53 28t53 45t44 68.5t32 94.5q9 41 9 76t-6 59.5t-19 44.5t-27 32 t-33.5 21t-34 13.5t-33 6.5t-27 2.5t-19.5 0.5q-17 0 -31 -1.5t-46 -7.5t-59.5 -23t-57.5 -43.5t-54 -73t-37 -107.5q-9 -42 -10 -77z" />
<glyph unicode="&#xe6;" horiz-adv-x="1691" d="M158 459h753q12 58 19.5 93.5t15.5 88t9 86t-1.5 76t-13.5 69t-30.5 54.5t-48.5 44t-71 26t-96 10q-49 0 -98 -13t-81 -27.5t-73 -44t-55 -42t-47 -41.5l-21 20l-51 51q198 181 445 181t368 -187q208 187 439 187q418 0 317 -492h-754q-19 -89 -28 -140t-16 -125 t5.5 -116t39 -85t81.5 -62t135 -19q107 0 198.5 52.5t150.5 115.5q17 -14 38 -37t35 -35q-106 -106 -214 -143t-226 -37q-131 0 -221 46.5t-156 138.5q-206 -185 -430 -185q-201 0 -285 120t-32 372zM257 309q3 -35 9.5 -70t25 -67t44 -57t67 -39.5t93.5 -14.5 q84 0 152.5 28t112 75.5t71 99.5t42.5 111h-614q-6 -31 -3 -66zM1116 682h619q6 50 -2 101.5t-32.5 100.5t-76.5 80t-125 31q-86 0 -154 -27.5t-112 -75.5t-71.5 -98.5t-45.5 -111.5z" />
<glyph unicode="&#xe7;" horiz-adv-x="1087" d="M227 535q32 152 92 259.5t147.5 169.5t192 89.5t238.5 27.5q195 0 322 -73l-25 -115q-67 44 -150.5 71t-166.5 27q-70 0 -128 -10t-120 -39.5t-110 -78.5t-89 -131t-65 -193q-20 -97 -21 -173.5t16 -128.5t46 -88t73 -55.5t91.5 -28t107.5 -8.5q178 0 377 88 q-23 -96 -25 -122q-114 -31 -195 -45.5t-176 -14.5h-59l-65 -110q122 4 169.5 -39.5t28.5 -112.5q-12 -64 -64 -101.5t-130 -43.5h2q-83 0 -133 12l8 43q40 -21 94 -21q24 0 51.5 7.5t58 34.5t37.5 69q27 127 -96 127q-49 0 -74 -2q15 8 66 79q26 35 43 58q-239 44 -331 185 t-38 387z" />
<glyph unicode="&#xe8;" horiz-adv-x="1067" d="M193.5 282.5q-6.5 99.5 21.5 223.5q58 282 209.5 433t396.5 151q424 0 301 -551l-764 2q-12 -53 -20 -93t-13.5 -84.5t-5 -77.5t6 -67t18.5 -58.5t34.5 -46t52.5 -35t73.5 -21t95.5 -7.5q110 0 200 51t148 115q72 -69 76 -72q-191 -178 -442 -178q-133 0 -219.5 38 t-124.5 108t-44.5 169.5zM391 625l631 2q25 153 -14 256q-24 57 -73 84.5t-134 27.5q-87 0 -159 -30.5t-121 -84t-81 -117t-49 -138.5zM727 1538h160l53 -229h-86z" />
<glyph unicode="&#xe9;" horiz-adv-x="1067" d="M193.5 282.5q-6.5 99.5 21.5 223.5q58 282 209.5 433t396.5 151q424 0 301 -551l-764 2q-12 -53 -20 -93t-13.5 -84.5t-5 -77.5t6 -67t18.5 -58.5t34.5 -46t52.5 -35t73.5 -21t95.5 -7.5q110 0 200 51t148 115q72 -69 76 -72q-191 -178 -442 -178q-133 0 -219.5 38 t-124.5 108t-44.5 169.5zM391 625l631 2q25 153 -14 256q-24 57 -73 84.5t-134 27.5q-87 0 -159 -30.5t-121 -84t-81 -117t-49 -138.5zM637 1257l172 263h209l-256 -263h-125z" />
<glyph unicode="&#xea;" horiz-adv-x="1067" d="M193.5 282.5q-6.5 99.5 21.5 223.5q58 282 209.5 433t396.5 151q424 0 301 -551l-764 2q-12 -53 -20 -93t-13.5 -84.5t-5 -77.5t6 -67t18.5 -58.5t34.5 -46t52.5 -35t73.5 -21t95.5 -7.5q110 0 200 51t148 115q72 -69 76 -72q-191 -178 -442 -178q-133 0 -219.5 38 t-124.5 108t-44.5 169.5zM391 625l631 2q25 153 -14 256q-24 57 -73 84.5t-134 27.5q-87 0 -159 -30.5t-121 -84t-81 -117t-49 -138.5zM553 1280l268 264h80l154 -264h-88l-119 211l-207 -211h-88z" />
<glyph unicode="&#xeb;" horiz-adv-x="1067" d="M193.5 282.5q-6.5 99.5 21.5 223.5q58 282 209.5 433t396.5 151q424 0 301 -551l-764 2q-12 -53 -20 -93t-13.5 -84.5t-5 -77.5t6 -67t18.5 -58.5t34.5 -46t52.5 -35t73.5 -21t95.5 -7.5q110 0 200 51t148 115q72 -69 76 -72q-191 -178 -442 -178q-133 0 -219.5 38 t-124.5 108t-44.5 169.5zM391 625l631 2q25 153 -14 256q-24 57 -73 84.5t-134 27.5q-87 0 -159 -30.5t-121 -84t-81 -117t-49 -138.5zM510 1247l43 201h170l-43 -201h-170zM510 1247l43 201h170l-43 -201h-170zM913 1247l43 201h172l-43 -201h-172zM913 1247l43 201h172 l-43 -201h-172z" />
<glyph unicode="&#xec;" horiz-adv-x="493" d="M188 0l226 1061h139l-225 -1061h-140zM440 1538h160l53 -229h-86z" />
<glyph unicode="&#xed;" horiz-adv-x="493" d="M188 0l226 1061h139l-225 -1061h-140zM356 1257l172 263h209l-256 -263h-125z" />
<glyph unicode="&#xee;" horiz-adv-x="493" d="M188 0l226 1061h139l-225 -1061h-140zM268 1280l269 264h79l154 -264h-88l-119 211l-207 -211h-88z" />
<glyph unicode="&#xef;" horiz-adv-x="493" d="M188 0l226 1061h139l-225 -1061h-140zM223 1247l43 201h170l-43 -201h-170zM223 1247l43 201h170l-43 -201h-170zM627 1247l43 201h172l-43 -201h-172zM627 1247l43 201h172l-43 -201h-172z" />
<glyph unicode="&#xf1;" horiz-adv-x="1150" d="M168 0l225 1061h121l-33 -211q60 97 200 169.5t265 72.5q152 0 216 -114.5t16 -336.5l-136 -641h-131l140 655q33 162 -14.5 248t-174.5 86q-138 0 -264.5 -94t-151.5 -217l-143 -678h-135zM578 1356l16 88q41 41 127 41q54 0 154.5 -29t158.5 -29q80 0 133 21l-16 -78 q-68 -47 -137 -47q-61 0 -160 26.5t-162 26.5q-61 0 -114 -20z" />
<glyph unicode="&#xf2;" horiz-adv-x="1153" d="M191 359q2 82 22 176q61 280 200 418.5t398 138.5q506 0 385 -557q-30 -145 -74.5 -247.5t-115 -176.5t-172.5 -110t-240 -36q-109 0 -189.5 30.5t-126 82.5t-67.5 125.5t-20 155.5zM332 367.5q-3 -74.5 5.5 -123.5t31.5 -84.5t47.5 -54.5t62 -30t66.5 -13.5t69 -2.5 q27 0 43 0.5t46.5 5t52 12.5t52 24.5t53.5 40t50.5 60t49.5 82.5t43 110t38 141q20 95 23 170t-5 122.5t-33 81.5t-47.5 51t-62.5 25.5t-63 10t-63 1.5h-6q-41 0 -63.5 -1t-65 -10t-70 -25.5t-65.5 -50t-64.5 -81.5t-54.5 -123t-48 -171q-19 -93 -22 -167.5zM770 1538h160 l53 -229h-86z" />
<glyph unicode="&#xf3;" horiz-adv-x="1153" d="M191 359q2 82 22 176q61 280 200 418.5t398 138.5q506 0 385 -557q-30 -145 -74.5 -247.5t-115 -176.5t-172.5 -110t-240 -36q-109 0 -189.5 30.5t-126 82.5t-67.5 125.5t-20 155.5zM332 367.5q-3 -74.5 5.5 -123.5t31.5 -84.5t47.5 -54.5t62 -30t66.5 -13.5t69 -2.5 q27 0 43 0.5t46.5 5t52 12.5t52 24.5t53.5 40t50.5 60t49.5 82.5t43 110t38 141q20 95 23 170t-5 122.5t-33 81.5t-47.5 51t-62.5 25.5t-63 10t-63 1.5h-6q-41 0 -63.5 -1t-65 -10t-70 -25.5t-65.5 -50t-64.5 -81.5t-54.5 -123t-48 -171q-19 -93 -22 -167.5zM680 1257 l172 263h209l-256 -263h-125z" />
<glyph unicode="&#xf4;" horiz-adv-x="1153" d="M191 359q2 82 22 176q61 280 200 418.5t398 138.5q506 0 385 -557q-30 -145 -74.5 -247.5t-115 -176.5t-172.5 -110t-240 -36q-109 0 -189.5 30.5t-126 82.5t-67.5 125.5t-20 155.5zM332 367.5q-3 -74.5 5.5 -123.5t31.5 -84.5t47.5 -54.5t62 -30t66.5 -13.5t69 -2.5 q27 0 43 0.5t46.5 5t52 12.5t52 24.5t53.5 40t50.5 60t49.5 82.5t43 110t38 141q20 95 23 170t-5 122.5t-33 81.5t-47.5 51t-62.5 25.5t-63 10t-63 1.5h-6q-41 0 -63.5 -1t-65 -10t-70 -25.5t-65.5 -50t-64.5 -81.5t-54.5 -123t-48 -171q-19 -93 -22 -167.5zM596 1280 l268 264h80l154 -264h-88l-119 211l-207 -211h-88z" />
<glyph unicode="&#xf5;" horiz-adv-x="1153" d="M191 359q2 82 22 176q61 280 200 418.5t398 138.5q506 0 385 -557q-30 -145 -74.5 -247.5t-115 -176.5t-172.5 -110t-240 -36q-109 0 -189.5 30.5t-126 82.5t-67.5 125.5t-20 155.5zM332 367.5q-3 -74.5 5.5 -123.5t31.5 -84.5t47.5 -54.5t62 -30t66.5 -13.5t69 -2.5 q27 0 43 0.5t46.5 5t52 12.5t52 24.5t53.5 40t50.5 60t49.5 82.5t43 110t38 141q20 95 23 170t-5 122.5t-33 81.5t-47.5 51t-62.5 25.5t-63 10t-63 1.5h-6q-41 0 -63.5 -1t-65 -10t-70 -25.5t-65.5 -50t-64.5 -81.5t-54.5 -123t-48 -171q-19 -93 -22 -167.5zM580 1356l16 88 q41 41 127 41q54 0 154.5 -29t158.5 -29q80 0 133 21l-16 -78q-68 -47 -137 -47q-61 0 -160 26.5t-162 26.5q-61 0 -114 -20z" />
<glyph unicode="&#xf6;" horiz-adv-x="1153" d="M191 359q2 82 22 176q61 280 200 418.5t398 138.5q506 0 385 -557q-30 -145 -74.5 -247.5t-115 -176.5t-172.5 -110t-240 -36q-109 0 -189.5 30.5t-126 82.5t-67.5 125.5t-20 155.5zM332 367.5q-3 -74.5 5.5 -123.5t31.5 -84.5t47.5 -54.5t62 -30t66.5 -13.5t69 -2.5 q27 0 43 0.5t46.5 5t52 12.5t52 24.5t53.5 40t50.5 60t49.5 82.5t43 110t38 141q20 95 23 170t-5 122.5t-33 81.5t-47.5 51t-62.5 25.5t-63 10t-63 1.5h-6q-41 0 -63.5 -1t-65 -10t-70 -25.5t-65.5 -50t-64.5 -81.5t-54.5 -123t-48 -171q-19 -93 -22 -167.5zM553 1247 l43 201h170l-43 -201h-170zM553 1247l43 201h170l-43 -201h-170zM956 1247l43 201h172l-43 -201h-172zM956 1247l43 201h172l-43 -201h-172z" />
<glyph unicode="&#xf8;" horiz-adv-x="1157" d="M194.5 391q3.5 71 18.5 144q61 279 203 418t403 139q213 0 301 -84l49 53h23l-59 -66q52 -47 76 -125.5t22 -162t-23 -172.5q-29 -144 -75 -246.5t-117.5 -177t-174.5 -110.5t-241 -36q-158 0 -264 60l-19 -25q-6 -6 -34 -41h-25l61 76q-49 34 -79.5 91t-39.5 125.5 t-5.5 139.5zM360 535q-50 -236 37 -408q188 229 645 780q-10 14 -21.5 26t-21.5 21t-25 16t-23.5 11.5t-26.5 7.5t-25 4.5t-27 2.5t-24.5 1h-26h-22.5h-6q-41 0 -64 -1t-65.5 -10t-70.5 -25.5t-65.5 -50t-64.5 -81.5t-55 -123t-48 -171zM406 115q73 -56 215 -56q27 0 43 0.5 t46.5 5t52 12.5t52 24.5t53.5 40t50.5 60t49.5 82.5t43 110t38 141q10 59 14.5 86t10.5 89t0 107t-23 76z" />
<glyph unicode="&#xf9;" horiz-adv-x="1175" d="M226.5 231.5q-3.5 73.5 17.5 171.5l141 658h139l-145 -676q-21 -106 -17.5 -179t46.5 -111t131 -38q94 0 189.5 42.5t171.5 127t99 191.5l138 643h133l-226 -1061h-122l34 221q-72 -123 -194 -189.5t-275 -66.5q-57 0 -102 14t-82 45.5t-55 82.5t-21.5 124.5zM782 1538 h160l53 -229h-86z" />
<glyph unicode="&#xfa;" horiz-adv-x="1175" d="M226.5 231.5q-3.5 73.5 17.5 171.5l141 658h139l-145 -676q-21 -106 -17.5 -179t46.5 -111t131 -38q94 0 189.5 42.5t171.5 127t99 191.5l138 643h133l-226 -1061h-122l34 221q-72 -123 -194 -189.5t-275 -66.5q-57 0 -102 14t-82 45.5t-55 82.5t-21.5 124.5zM690 1257 l172 263h209l-256 -263h-125z" />
<glyph unicode="&#xfb;" horiz-adv-x="1175" d="M226.5 231.5q-3.5 73.5 17.5 171.5l141 658h139l-145 -676q-21 -106 -17.5 -179t46.5 -111t131 -38q94 0 189.5 42.5t171.5 127t99 191.5l138 643h133l-226 -1061h-122l34 221q-72 -123 -194 -189.5t-275 -66.5q-57 0 -102 14t-82 45.5t-55 82.5t-21.5 124.5zM606 1280 l268 264h80l154 -264h-88l-119 211l-207 -211h-88z" />
<glyph unicode="&#xfc;" horiz-adv-x="1175" d="M226.5 231.5q-3.5 73.5 17.5 171.5l141 658h139l-145 -676q-21 -106 -17.5 -179t46.5 -111t131 -38q94 0 189.5 42.5t171.5 127t99 191.5l138 643h133l-226 -1061h-122l34 221q-72 -123 -194 -189.5t-275 -66.5q-57 0 -102 14t-82 45.5t-55 82.5t-21.5 124.5zM563 1247 l43 201h170l-43 -201h-170zM563 1247l43 201h170l-43 -201h-170zM967 1247l43 201h172l-43 -201h-172zM967 1247l43 201h172l-43 -201h-172z" />
<glyph unicode="&#xfd;" horiz-adv-x="1095" d="M287 1061h139l170 -1061l569 1061h140l-854 -1495h-119l170 328zM651 1257l172 263h209l-256 -263h-125z" />
<glyph unicode="&#xff;" horiz-adv-x="1095" d="M287 1061h139l170 -1061l569 1061h140l-854 -1495h-119l170 328zM524 1247l43 201h170l-43 -201h-170zM524 1247l43 201h170l-43 -201h-170zM928 1247l43 201h172l-43 -201h-172zM928 1247l43 201h172l-43 -201h-172z" />
<glyph unicode="&#x178;" horiz-adv-x="1413" d="M369 1464h149l340 -811l690 811h152l-787 -915l-116 -551h-148l117 551zM766 1651l43 200h170l-43 -200h-170zM766 1651l43 200h170l-43 -200h-170zM1169 1651l43 200h172l-43 -200h-172zM1169 1651l43 200h172l-43 -200h-172z" />
<glyph unicode="&#x2c6;" horiz-adv-x="491" d="M268 1280l269 264h79l154 -264h-88l-119 211l-207 -211h-88z" />
<glyph unicode="&#x2dc;" horiz-adv-x="454" d="M252 1356l16 88q41 41 127 41q54 0 155 -29t159 -29q81 0 133 21l-17 -78q-68 -47 -137 -47q-61 0 -159.5 26.5t-161.5 26.5q-62 0 -115 -20z" />
<glyph unicode="&#x2000;" horiz-adv-x="1003" />
<glyph unicode="&#x2001;" horiz-adv-x="2007" />
<glyph unicode="&#x2002;" horiz-adv-x="1003" />
<glyph unicode="&#x2003;" horiz-adv-x="2007" />
<glyph unicode="&#x2004;" horiz-adv-x="669" />
<glyph unicode="&#x2005;" horiz-adv-x="501" />
<glyph unicode="&#x2006;" horiz-adv-x="334" />
<glyph unicode="&#x2007;" horiz-adv-x="334" />
<glyph unicode="&#x2008;" horiz-adv-x="250" />
<glyph unicode="&#x2009;" horiz-adv-x="401" />
<glyph unicode="&#x200a;" horiz-adv-x="111" />
<glyph unicode="&#x2010;" horiz-adv-x="815" d="M246 518l22 105h574l-23 -105h-573z" />
<glyph unicode="&#x2011;" horiz-adv-x="815" d="M246 518l22 105h574l-23 -105h-573z" />
<glyph unicode="&#x2012;" horiz-adv-x="815" d="M246 518l22 105h574l-23 -105h-573z" />
<glyph unicode="&#x2013;" horiz-adv-x="1024" d="M133 518l23 105h1022l-23 -105h-1022z" />
<glyph unicode="&#x2014;" horiz-adv-x="2048" d="M401 518l23 105h1554l-22 -105h-1555z" />
<glyph unicode="&#x2018;" horiz-adv-x="569" d="M399 918q3 103 25 204q38 173 118 257.5t181 97.5l-18 -80q-37 -4 -66.5 -17t-51 -38t-36 -47.5t-27.5 -63t-19.5 -66t-17.5 -73.5h127l-36 -174h-179z" />
<glyph unicode="&#x2019;" horiz-adv-x="569" d="M377 920l16 73q44 4 77.5 23.5t54 46t36.5 67t25.5 76.5t20.5 84l3 15h-123l37 174h178q-10 -133 -28 -209q-18 -89 -50.5 -156t-74.5 -105.5t-84 -59.5t-88 -29z" />
<glyph unicode="&#x201a;" horiz-adv-x="569" d="M106 -383l15 72q43 4 77.5 25.5t53.5 42t38 70t25 70.5t20 83q1 4 2 6.5t1.5 6.5t1.5 7h-123l35 172h178q-10 -137 -27 -203q-34 -171 -115.5 -254.5t-181.5 -97.5z" />
<glyph unicode="&#x201c;" horiz-adv-x="901" d="M365 918q3 110 22 204q69 310 301 355l-16 -78q-38 -6 -68 -19t-52 -38.5t-36 -47t-27 -63t-19 -65t-17 -74.5h127l-37 -174h-178zM788 918q14 141 29 204q68 311 297 355l-16 -78q-37 -6 -66.5 -19.5t-50.5 -38t-36 -47.5t-27.5 -62t-19.5 -66t-17 -74h123l-37 -174 h-179z" />
<glyph unicode="&#x201d;" horiz-adv-x="909" d="M336 920l16 73q28 3 52 11t43 24.5t33 31t27 41.5t20.5 44.5t17 52t13.5 52t13 55.5h-122l36 174h179q-15 -150 -29 -209q-60 -302 -299 -350zM764 920l16 73q44 4 77.5 23.5t54 46t36.5 67t25.5 76.5t20.5 84l3 15h-127l37 174h180q0 -92 -26 -209q-18 -89 -50 -155.5 t-73.5 -105.5t-83.5 -60t-90 -29z" />
<glyph unicode="&#x201e;" horiz-adv-x="997" d="M98 -383l15 72q43 4 76.5 25.5t52.5 42t38 69.5t25 70t20 84q1 4 1.5 6.5t1.5 6.5t2 7h-121l35 172h176q-6 -115 -25 -203q-34 -171 -115.5 -254.5t-181.5 -97.5zM563 -383l15 72q45 5 79 25.5t54.5 46.5t37 70.5t24.5 78t18 88.5q-17 0 -58 1t-61 1l35 172h178 q-3 -111 -23 -203q-18 -90 -51 -158t-75 -107t-84.5 -59.5t-88.5 -27.5z" />
<glyph unicode="&#x2022;" horiz-adv-x="1024" d="M160 745q0 154 108 262.5t262 108.5t262.5 -108.5t108.5 -262.5t-108.5 -262t-262.5 -108t-262 108t-108 262z" />
<glyph unicode="&#x2026;" horiz-adv-x="1665" d="M188 -2l37 172h174l-37 -172h-174zM791 -2l36 172h174l-36 -172h-174zM1393 -2l37 172h172l-37 -172h-172z" />
<glyph unicode="&#x202f;" horiz-adv-x="401" />
<glyph unicode="&#x2039;" horiz-adv-x="626" d="M266 578q6 24 35 40l399 248q-1 -3 -3.5 -16t-3.5 -17t-3.5 -14.5t-5 -15t-6.5 -11.5t-9.5 -11t-11.5 -7l-319 -196q202 -175 229 -191q14 -12 17.5 -32t1.5 -31.5t-8 -36.5l-293 250q-22 16 -19 41z" />
<glyph unicode="&#x203a;" horiz-adv-x="636" d="M213 287q1 2 3 12.5t3 14t4 13t5 14t6.5 12.5t9 13t11 10.5t13.5 10.5q229 136 307 191l-233 196q-15 9 -15.5 32.5t7.5 49.5q1 7 2 10l297 -248q20 -15 14 -40q-3 -25 -35 -41z" />
<glyph unicode="&#x205f;" horiz-adv-x="501" />
<glyph unicode="&#x20ac;" horiz-adv-x="1259" d="M199 555l37 45h120q29 195 74 342h-149l36 43h125q237 590 715 590q70 0 146 -12.5t122.5 -25t116.5 -34.5l-29 -127q-216 109 -374 109q-49 0 -90.5 -7.5t-102 -37.5t-113.5 -81t-113 -147t-112 -227h514l-24 -43h-500q-6 -25 -21 -87t-19.5 -83t-12 -69t-13.5 -103h396 q-9 -24 -21 -45h-383q3 -93 22 -167.5t43.5 -120t60.5 -78.5t63 -48t62 -23t45.5 -8.5t25.5 -0.5q124 0 231.5 41t216.5 116l-30 -143q-206 -123 -441 -123q-211 0 -339.5 148t-135.5 407h-149z" />
<glyph unicode="&#x25fc;" horiz-adv-x="1064" d="M0 0v1065h1065v-1065h-1065z" />
</font>
</defs>
</svg>
